<?xml version="1.0" encoding="utf-8"?>
<!-- Generator: Adobe Illustrator 26.1.0, SVG Export Plug-In . SVG Version: 6.00 Build 0)  -->
<svg version="1.1" xmlns="http://www.w3.org/2000/svg" xmlns:xlink="http://www.w3.org/1999/xlink" x="0px" y="0px"
	 viewBox="0 0 181 199" style="enable-background:new 0 0 181 199;" xml:space="preserve">
<style type="text/css">
	.st0{fill:#FFFFFF;}
	.st1{fill:#E02B52;}
	.st2{fill:#282325;}
	.st3{fill:#383838;}
	.st4{fill:#383838;stroke:#383838;stroke-width:2;stroke-miterlimit:10;}
	.st5{fill:#8E8E8E;}
	.st6{fill:#C0C0C0;}
	.st7{fill:#A3A3A3;}
</style>
<g id="Capa_2">
</g>
<g id="Capa_1">
</g>
<g id="Capa_3">
	<path class="st0" d="M94.91,94.58c0,7.34,0,16.06,0,22.06c-3,2-3.8,2.63-6.5,3.71c-21.73,8.65-43.21,8.45-62.54-5.7
		C6.15,100.2-0.19,79.4,2.34,55.77C8.09,1.93,62.91-9.37,93.2,9.89c2.06,1.1,4.05,2.32,6.71,3.86c0-3.11,0-7.11,0-10.11
		c4.75,0,10.34,0,15.5,0v39c-5,0-9.5,0-13.5,0c-2.26-1.18-3.73-4.25-5.85-7.35C78.62,9.87,39.86,13.45,26.77,41.24
		c-7.42,15.75-6.95,31.99,1.39,47.31c11.76,21.59,40.38,27.18,59.75,12.05C89.98,98.98,91.65,97.29,94.91,94.58z"/>
	<path class="st0" d="M101.91,81.85c17.52,0,35.14-1.2,51,0.78c16,2,24.85,15.6,25,34.54c0.15,19.04-8,31.46-25,36.46
		c-9.82,2.89-21.28,1.25-32.17,2l0.17,26.5c4.17,0,9.81,0,15,0v14.71h-49v-14.71c5,0,10,0,15,0V81.85z M120.57,140.63
		c6.34,0,19.86,0.24,29.1-2c9.07-2.2,12.4-11.31,11.51-23.63c-0.7-9.61-5.47-16.38-13.97-17.58c-8.69-1.23-17.3-0.79-26.64-0.79
		V140.63z"/>
</g>
</svg>
