<?xml version="1.0" encoding="utf-8"?>
<!-- Generator: Adobe Illustrator 26.1.0, SVG Export Plug-In . SVG Version: 6.00 Build 0)  -->
<svg version="1.1" id="Capa_1" xmlns="http://www.w3.org/2000/svg" xmlns:xlink="http://www.w3.org/1999/xlink" x="0px" y="0px"
	 viewBox="0 0 21 21" style="enable-background:new 0 0 21 21;" xml:space="preserve">
<style type="text/css">
	.st0{fill:#636363;}
</style>
<path class="st0" d="M10.5,0C4.7,0,0,4.7,0,10.5c0,5.2,3.8,9.5,8.7,10.4v-8.2H6.2V9.8h2.5V7.6c0-2.5,1.5-3.9,3.8-3.9
	c1.1,0,2,0.1,2.3,0.1v2.6l-1.6,0c-1.2,0-1.5,0.6-1.5,1.4v1.9h2.9l-0.4,2.9h-2.5V21C17,20.4,21,15.9,21,10.5C21,4.7,16.3,0,10.5,0z"
	/>
</svg>
