<?xml version="1.0" encoding="utf-8"?>
<!-- Generator: Adobe Illustrator 26.1.0, SVG Export Plug-In . SVG Version: 6.00 Build 0)  -->
<svg version="1.1" id="Capa_1" xmlns="http://www.w3.org/2000/svg" xmlns:xlink="http://www.w3.org/1999/xlink" x="0px" y="0px"
	 viewBox="0 0 21 21" style="enable-background:new 0 0 21 21;" xml:space="preserve">
<style type="text/css">
	.st0{fill:#636363;}
</style>
<path class="st0" d="M20.9,6.2c0-1.1-0.2-1.9-0.5-2.5c-0.3-0.7-0.7-1.3-1.2-1.9c-0.5-0.5-1.2-0.9-1.9-1.2c-0.7-0.3-1.4-0.4-2.5-0.5
	C13.7,0,13.4,0,10.5,0C7.7,0,7.3,0,6.2,0.1c-1.1,0-1.9,0.2-2.5,0.5C2.9,0.8,2.3,1.2,1.8,1.8C1.2,2.3,0.8,2.9,0.6,3.6
	C0.3,4.3,0.1,5.1,0.1,6.2C0,7.3,0,7.7,0,10.5c0,2.9,0,3.2,0.1,4.3c0,1.1,0.2,1.9,0.5,2.5c0.3,0.7,0.7,1.3,1.2,1.9
	c0.5,0.5,1.2,0.9,1.9,1.2c0.7,0.3,1.4,0.4,2.5,0.5c1.1,0,1.5,0.1,4.3,0.1c2.9,0,3.2,0,4.3-0.1c1.1,0,1.9-0.2,2.5-0.5
	c1.4-0.5,2.5-1.7,3.1-3.1c0.3-0.7,0.4-1.4,0.5-2.5c0-1.1,0.1-1.5,0.1-4.3C21,7.7,21,7.3,20.9,6.2z M19.1,14.7c0,1-0.2,1.6-0.4,1.9
	c-0.4,0.9-1.1,1.6-2,2c-0.4,0.1-0.9,0.3-1.9,0.4c-1.1,0-1.4,0.1-4.2,0.1c-2.8,0-3.1,0-4.2-0.1c-1,0-1.6-0.2-1.9-0.4
	c-0.5-0.2-0.9-0.4-1.2-0.8c-0.3-0.3-0.6-0.8-0.8-1.2C2.2,16.3,2,15.8,2,14.8c0-1.1-0.1-1.4-0.1-4.2c0-2.8,0-3.1,0.1-4.2
	c0-1,0.2-1.6,0.4-1.9c0.2-0.5,0.4-0.9,0.8-1.2c0.3-0.3,0.8-0.6,1.2-0.8C4.7,2.2,5.2,2,6.3,2c1.1,0,1.4-0.1,4.2-0.1
	c2.8,0,3.1,0,4.2,0.1c1,0,1.6,0.2,1.9,0.4c0.5,0.2,0.9,0.4,1.2,0.8c0.3,0.3,0.6,0.8,0.8,1.2c0.1,0.4,0.3,0.9,0.4,1.9
	c0,1.1,0.1,1.4,0.1,4.2C19.1,13.3,19.1,13.6,19.1,14.7z"/>
<path class="st0" d="M10.5,6C8,6,6,8,6,10.5C6,13,8,15,10.5,15c2.5,0,4.5-2,4.5-4.5C15,8,13,6,10.5,6z M10.5,13.4
	c-1.6,0-2.9-1.3-2.9-2.9c0-1.6,1.3-2.9,2.9-2.9c1.6,0,2.9,1.3,2.9,2.9C13.4,12.1,12.1,13.4,10.5,13.4z"/>
<path class="st0" d="M18,5.5C18,6.3,17.3,7,16.5,7C15.7,7,15,6.3,15,5.5C15,4.7,15.7,4,16.5,4C17.3,4,18,4.7,18,5.5z"/>
</svg>
