<?xml version="1.0" encoding="utf-8"?>
<!-- Generator: Adobe Illustrator 26.1.0, SVG Export Plug-In . SVG Version: 6.00 Build 0)  -->
<svg version="1.1" id="Capa_1" xmlns="http://www.w3.org/2000/svg" xmlns:xlink="http://www.w3.org/1999/xlink" x="0px" y="0px"
	 viewBox="0 0 21 21" style="enable-background:new 0 0 21 21;" xml:space="preserve">
<style type="text/css">
	.st0{fill:#636363;}
</style>
<path class="st0" d="M19.5,0h-18C0.7,0,0,0.7,0,1.5v18C0,20.3,0.7,21,1.5,21h18c0.8,0,1.5-0.7,1.5-1.5v-18C21,0.7,20.3,0,19.5,0
	L19.5,0z M7.4,15.9H4.9V8.2h2.6V15.9z M6.2,7.1L6.2,7.1c-0.9,0-1.4-0.6-1.4-1.3c0-0.8,0.6-1.3,1.4-1.3S7.6,5,7.6,5.8
	C7.6,6.5,7.1,7.1,6.2,7.1z M16.7,15.9h-2.6v-4.1c0-1-0.4-1.7-1.3-1.7c-0.7,0-1.1,0.5-1.3,0.9c-0.1,0.2-0.1,0.4-0.1,0.6v4.3H8.9
	c0,0,0-7,0-7.7h2.6v1.1C11.8,8.7,12.4,8,13.7,8c1.7,0,2.9,1.1,2.9,3.5V15.9z"/>
</svg>
