<?xml version="1.0" encoding="utf-8"?>
<!-- Generator: Adobe Illustrator 26.1.0, SVG Export Plug-In . SVG Version: 6.00 Build 0)  -->
<svg version="1.1" xmlns="http://www.w3.org/2000/svg" xmlns:xlink="http://www.w3.org/1999/xlink" x="0px" y="0px"
	 viewBox="0 0 460 197" style="enable-background:new 0 0 460 197;" xml:space="preserve">
<style type="text/css">
	.st0{fill:#FFFFFF;}
	.st1{fill:#E02B52;}
	.st2{fill:#282325;}
	.st3{fill:#383838;}
	.st4{fill:#383838;stroke:#383838;stroke-width:2;stroke-miterlimit:10;}
	.st5{fill:#8E8E8E;}
	.st6{fill:#C0C0C0;}
	.st7{fill:#A3A3A3;}
</style>
<g id="Capa_2">
</g>
<g id="Capa_1">
</g>
<g id="Capa_3">
	<path class="st3" d="M93.91,94.08c0,7.34,0,16.06,0,22.06c-3,2-3.8,2.63-6.5,3.71c-21.73,8.65-43.21,8.45-62.54-5.7
		C5.15,99.7-1.19,78.9,1.34,55.27C7.09,1.43,61.91-9.87,92.2,9.39c2.06,1.1,4.05,2.32,6.71,3.86c0-3.11,0-7.11,0-10.11
		c4.75,0,10.34,0,15.5,0v39c-5,0-9.5,0-13.5,0c-2.26-1.18-3.73-4.25-5.85-7.35C77.62,9.37,38.86,12.95,25.77,40.74
		c-7.42,15.75-6.95,31.99,1.39,47.31c11.76,21.59,40.38,27.18,59.75,12.05C88.98,98.48,90.65,96.79,93.91,94.08z"/>
	<path class="st3" d="M100.91,81.35c17.52,0,35.14-1.2,51,0.78c16,2,24.85,15.6,25,34.54c0.15,19.04-8,31.46-25,36.46
		c-9.82,2.89-21.28,1.25-32.17,2l0.17,26.5c4.17,0,9.81,0,15,0v14.71h-49v-14.71c5,0,10,0,15,0V81.35z M119.57,140.13
		c6.34,0,19.86,0.24,29.1-2c9.07-2.2,12.4-11.31,11.51-23.63c-0.7-9.61-5.47-16.38-13.97-17.58c-8.69-1.23-17.3-0.79-26.64-0.79
		V140.13z"/>
	<g>
		<path class="st3" d="M150.53,20.58c-15.45,0-26.24,11.52-26.24,28.01c0,16,10.44,27.18,25.4,27.18c13.11,0,26.34-8.66,26.34-28.01
			C176.04,31.5,165.79,20.58,150.53,20.58z M150.11,66.55c-8.23,0-14.2-7.68-14.2-18.27c0-9.2,4.45-18.48,14.41-18.48
			c11.07,0,13.99,11.95,13.99,18.27C164.31,58.78,158.34,66.55,150.11,66.55z"/>
		<rect x="185.32" y="0.12" class="st3" width="11.52" height="74.5"/>
		<path class="st3" d="M231.19,20.58c-14.65,0-24.88,11.69-24.88,28.43c0,16.19,10.22,26.66,26.03,26.66
			c8.37,0,14.03-1.76,17.3-3.24l0.87-0.39l-2.11-8.85l-1.26,0.54c-3.09,1.31-6.86,2.52-13.55,2.52c-4.65,0-15.33-1.51-16.14-15.23
			h35.36l0.16-1.46c0.11-0.97,0.27-2.31,0.27-3.99C253.25,34.04,247.47,20.58,231.19,20.58z M230.46,29.49
			c3.31,0,5.98,1.01,7.93,2.99c2.91,2.96,3.52,7.31,3.63,9.62h-24.32C218.68,36.9,222.21,29.49,230.46,29.49z"/>
		<path class="st3" d="M297.6,27.25c-2.44-3.03-7.03-6.67-15-6.67c-11.6,0-23.94,9.82-23.94,28.01c0,14.72,9.75,25.82,22.68,25.82
			c6.18,0,11.53-2.28,15.14-6.36v2.38c0,10.79-5.23,16.5-15.14,16.5c-7.36,0-12.4-2.65-14.22-3.79l-1.26-0.79l-3.04,9.25l0.73,0.49
			c4.05,2.7,10.74,4.38,17.47,4.38c5.64,0,13.55-1.11,19.16-6.36c5.25-4.7,7.6-12.08,7.6-23.96V36.79c0-6.04,0.2-9.99,0.42-13.83
			l0.07-1.23H297.9L297.6,27.25z M295.92,39.04c0.32,0.97,0.46,2.11,0.46,3.81v9.09c0,1.63-0.24,3.24-0.67,4.54
			c-1.78,5.23-6.35,8.62-11.65,8.62c-10.17,0-13.78-9.17-13.78-17.02c0-10.74,5.58-17.96,13.88-17.96
			C290.77,30.11,294.56,34.71,295.92,39.04z"/>
		<path class="st3" d="M325.65,15.49c2.09,0,3.95-0.73,5.23-2.06c1.21-1.25,1.84-2.94,1.78-4.76c-0.01-3.99-2.87-6.89-6.8-6.89
			c-3.94,0-6.91,2.97-6.91,6.91C318.95,12.56,321.83,15.49,325.65,15.49z"/>
		<rect x="320.1" y="21.73" class="st3" width="11.52" height="52.89"/>
	</g>
	<path class="st3" d="M367.13,20.58c-15.45,0-26.24,11.52-26.24,28.01c0,16,10.44,27.18,25.4,27.18c13.11,0,26.34-8.66,26.34-28.01
		C392.63,31.5,382.38,20.58,367.13,20.58z M366.71,66.55c-8.23,0-14.2-7.68-14.2-18.27c0-9.2,4.45-18.48,14.41-18.48
		c11.07,0,13.99,11.95,13.99,18.27C380.91,58.78,374.94,66.55,366.71,66.55z"/>
	<g>
		<path class="st3" d="M193.87,141.26c-15.45,0-26.24,11.52-26.24,28.01c0,16,10.44,27.18,25.4,27.18
			c13.11,0,26.34-8.66,26.34-28.01C219.37,152.19,209.12,141.26,193.87,141.26z M207.65,168.75c0,10.71-5.97,18.48-14.2,18.48
			s-14.2-7.68-14.2-18.27c0-9.2,4.45-18.48,14.41-18.48C204.72,150.48,207.65,162.43,207.65,168.75z"/>
		<path class="st3" d="M252.17,141.26c-5.48,0-10.42,3.08-13.39,8.11l-0.22-6.96h-10.41l0.08,1.24c0.29,4.32,0.42,9.16,0.42,15.7
			v35.95h11.41v-28.12c0-1.48,0.2-2.9,0.4-4.08c1.22-6.69,5.5-10.85,11.19-10.85c1.12,0,1.98,0.08,2.88,0.29l1.41,0.31v-11.03
			l-0.88-0.22C254.08,141.36,253.24,141.26,252.17,141.26z"/>
		<path class="st3" d="M278.72,127.54l-11.31,3.02v11.85h-7.84v9.32h7.84v26.42c0,6.78,1.23,11.22,3.84,13.93
			c2.44,2.79,6.17,4.26,10.8,4.26c3.44,0,6.49-0.48,8.59-1.34l0.77-0.32l-0.55-9.15l-1.38,0.38c-0.98,0.27-2.65,0.59-5.02,0.59
			c-2.98,0-5.74-1.05-5.74-8.66v-26.11h13.16v-9.32h-13.16V127.54z"/>
		<path class="st3" d="M337.75,182.02v-18.91c0-14.29-7.05-21.85-20.39-21.85c-6.38,0-12.67,1.71-17.25,4.68l-0.76,0.49l2.87,8.32
			l1.24-0.81c3.46-2.24,8.15-3.57,12.53-3.57c6.82,0,10.29,3.51,10.33,10.43c-11.88,0.1-20.47,2.69-25.52,7.72
			c-3.24,3.22-4.88,7.34-4.88,12.24c0,7.79,5.71,15.68,16.62,15.68c5.84,0,11.24-2.27,14.9-6.17l0.58,5.01h10.78l-0.25-1.37
			C338.02,190.91,337.75,187.01,337.75,182.02z M309.82,173.74c2.89-2.83,8.4-4.26,16.4-4.26c0.11,0,0.22,0,0.34,0v7.63
			c0,0.76-0.16,1.66-0.46,2.55c-1.21,3.54-4.85,7.68-11.13,7.68c-3.63,0-7.51-2-7.51-7.62C307.45,177.25,308.23,175.3,309.82,173.74
			z"/>
		<rect x="350.27" y="120.8" class="st3" width="11.52" height="74.5"/>
		<path class="st3" d="M396.15,141.26c-14.65,0-24.88,11.69-24.88,28.43c0,16.19,10.22,26.66,26.03,26.66
			c8.37,0,14.03-1.76,17.3-3.24l0.87-0.39l-2.11-8.85l-1.26,0.54c-3.08,1.31-6.86,2.52-13.55,2.52c-4.65,0-15.33-1.51-16.14-15.23
			h35.36l0.16-1.46c0.11-0.97,0.27-2.31,0.27-3.99C418.2,154.72,412.43,141.26,396.15,141.26z M395.42,150.17
			c3.31,0,5.98,1.01,7.93,2.99c2.91,2.96,3.52,7.31,3.63,9.62h-24.32C383.63,157.58,387.16,150.17,395.42,150.17z"/>
		<path class="st3" d="M445.14,163.7c-6.88-2.62-8.86-4.3-8.86-7.48c0-3.43,2.93-5.73,7.3-5.73c4.85,0,8.42,1.92,9.72,2.75
			l1.24,0.78l3.08-8.97l-0.81-0.48c-3.48-2.06-8.35-3.29-13.02-3.29c-10.96,0-18.61,6.58-18.61,16c0,4.73,2.45,11.24,14.13,15.4
			c7.27,2.68,8.64,4.96,8.64,8.21c0,3.98-3.24,6.36-8.66,6.36c-4.27,0-8.85-1.74-11.48-3.47l-1.27-0.83l-3.06,9.33l0.81,0.47
			c3.9,2.29,9.29,3.61,14.8,3.61c12.19,0,20.07-6.4,20.07-16.31C459.16,172.43,454.84,167.39,445.14,163.7z"/>
	</g>
</g>
</svg>
