<?xml version="1.0" encoding="utf-8"?>
<!-- Generator: Adobe Illustrator 26.1.0, SVG Export Plug-In . SVG Version: 6.00 Build 0)  -->
<svg version="1.1" xmlns="http://www.w3.org/2000/svg" xmlns:xlink="http://www.w3.org/1999/xlink" x="0px" y="0px"
	 viewBox="0 0 100 101" style="enable-background:new 0 0 100 101;" xml:space="preserve">
<style type="text/css">
	.st0{display:none;}
	.st1{display:inline;}
	.st2{fill:#65A2EA;}
	.st3{fill:#FFC154;}
	.st4{fill:#FFDEA9;}
	.st5{fill:#F29538;}
	.st6{fill:#366899;}
	.st7{fill:#224E72;}
	.st8{fill:#7AAFFC;}
	.st9{display:inline;fill:#224E72;}
	.st10{fill:#FFFFFF;}
	.st11{fill:#C0D3F9;}
	.st12{display:inline;fill:#8FC2FF;}
	.st13{display:inline;fill:#FFFFFF;}
	.st14{display:inline;fill:#DCEAF7;}
	.st15{display:inline;fill:#7AAFFC;}
	.st16{display:inline;fill:#E51F20;}
	.st17{display:inline;fill:#FFC154;}
	.st18{display:inline;fill:#F29538;}
	.st19{display:inline;fill:#5C9EE0;}
	.st20{fill:#E51F20;}
	.st21{fill:#A01F5D;}
	.st22{display:inline;fill:#4E7FA8;}
	.st23{display:inline;fill:#6D8699;}
	.st24{display:inline;fill:#576D7A;}
	.st25{display:inline;fill:#8DCEFF;}
	.st26{display:inline;fill:#A01F5D;}
	.st27{fill:#DCEAF7;}
	.st28{fill:#6D8699;}
	.st29{fill:#576D7A;}
	.st30{fill:#8EACBF;}
	.st31{display:inline;fill:#495E68;}
	.st32{fill:#495E68;}
	.st33{fill:#8FC2FF;}
	.st34{fill:#E5AC73;}
	.st35{fill:#C1814D;}
	.st36{fill:#7C5D42;}
	.st37{fill:#5E4634;}
	.st38{fill:#D19259;}
	.st39{fill:#AA6F44;}
	.st40{fill:#D3945B;}
	.st41{display:inline;fill:#C1814D;}
	.st42{display:inline;fill:#AA6F44;}
	.st43{display:inline;fill:#E5AC73;}
	.st44{display:inline;fill:#D3945B;}
	.st45{fill:none;stroke:#5E4634;stroke-width:0.5574;stroke-miterlimit:10;}
	.st46{fill:#5E9BE5;}
	.st47{fill:#4885B7;}
</style>
<g id="BACKGROUND">
</g>
<g id="OBJECTS">
	<g class="st0">
		
			<ellipse transform="matrix(0.2226 -0.9749 0.9749 0.2226 -10.3616 88.0064)" class="st13" cx="50" cy="50.5" rx="41.45" ry="41.45"/>
		<path class="st14" d="M89.5,63.1C45.6,80.64,29.96,41.8,15.38,27.71c-4.31,6.54-6.83,14.37-6.83,22.79
			c0,22.89,18.56,41.45,41.45,41.45C68.5,91.95,84.16,79.83,89.5,63.1z"/>
		<path class="st15" d="M9.7,60.19c4.04,16.84,18.34,29.69,35.94,31.53c9.59-8.06,23.05-24.85,24.32-56.15
			C69.96,35.57,26.24,18.63,9.7,60.19z"/>
		<path class="st16" d="M22.49,19.5C49.06,10,70.73,35.49,70.73,35.49c3.77-7.54,3.04-14.63,0.88-20.36
			C65.32,11.27,57.92,9.05,50,9.05C39.44,9.05,29.81,13,22.49,19.5z"/>
		<path class="st17" d="M91.45,50.5c0-3.29-0.39-6.49-1.12-9.55c-9.23-6.64-19.44-4.81-19.44-4.81s13.87,16.7,14.7,35.62
			C89.31,65.54,91.45,58.27,91.45,50.5z"/>
		<path class="st14" d="M74.12,31.33c2.68,3.25,2.55,7.79-0.29,10.13c-2.84,2.34-7.32,1.61-10-1.64c-2.68-3.25-2.55-7.79,0.29-10.13
			C66.97,27.34,71.44,28.07,74.12,31.33z"/>
		<path class="st13" d="M72.69,31.38c1.44,1.13,2.03,2.76,1.34,3.65c-0.7,0.89-2.43,0.69-3.86-0.44c-1.44-1.13-2.03-2.76-1.34-3.65
			C69.52,30.06,71.25,30.25,72.69,31.38z"/>
		<path class="st18" d="M84.72,64.82c0.46,2.26,0.76,4.58,0.87,6.93c0.23-0.39,0.46-0.78,0.68-1.17c0,0,0-0.01,0.01-0.01
			c0.24-0.44,0.48-0.88,0.7-1.33c0.06-0.12,0.12-0.25,0.18-0.37c0.17-0.34,0.33-0.67,0.49-1.01c0.06-0.14,0.13-0.28,0.19-0.42
			c0.15-0.34,0.3-0.68,0.44-1.03c0.05-0.13,0.11-0.26,0.16-0.38c0.16-0.39,0.31-0.79,0.46-1.19c0.03-0.08,0.06-0.16,0.09-0.24
			c0.18-0.49,0.35-0.99,0.51-1.49C87.86,63.75,86.28,64.31,84.72,64.82z"/>
		<path class="st19" d="M25.2,39.43C19.13,43.71,13.64,50.28,9.7,60.19c0.12,0.51,0.25,1.01,0.39,1.52
			c0.01,0.04,0.02,0.08,0.03,0.11c0.58,2.03,1.3,4,2.17,5.9c0.01,0.03,0.02,0.05,0.03,0.08c0.21,0.46,0.43,0.91,0.66,1.36
			c0.02,0.04,0.04,0.08,0.06,0.11c0.92,1.81,1.98,3.55,3.14,5.2c0.05,0.08,0.11,0.15,0.16,0.23c0.27,0.37,0.54,0.74,0.82,1.1
			c0.05,0.07,0.11,0.14,0.17,0.21c0.88,1.13,1.82,2.2,2.81,3.23c0.07,0.08,0.15,0.15,0.22,0.23c0.29,0.29,0.58,0.58,0.88,0.87
			c0.12,0.12,0.25,0.24,0.38,0.36c0.29,0.27,0.58,0.54,0.88,0.81c0.13,0.11,0.25,0.22,0.38,0.33c0.97,0.84,1.98,1.64,3.03,2.39
			c0.18,0.13,0.36,0.26,0.55,0.39c0.29,0.2,0.58,0.39,0.87,0.59c0.21,0.14,0.42,0.27,0.62,0.4c0.29,0.18,0.58,0.36,0.87,0.54
			c0.23,0.13,0.46,0.26,0.69,0.39c0.48,0.27,0.97,0.54,1.46,0.79c0.28,0.14,0.55,0.29,0.83,0.43c0.28,0.14,0.56,0.27,0.85,0.4
			c0.27,0.12,0.53,0.25,0.81,0.36c0.29,0.12,0.57,0.25,0.86,0.36c0.28,0.12,0.57,0.23,0.85,0.33c0.28,0.11,0.56,0.22,0.85,0.32
			c0.35,0.13,0.71,0.24,1.06,0.36c0.4,0.13,0.81,0.26,1.22,0.38c0.36,0.11,0.72,0.21,1.08,0.31c0.28,0.07,0.56,0.14,0.85,0.21
			c0.32,0.08,0.64,0.15,0.97,0.22c0.29,0.06,0.58,0.12,0.87,0.18c0.34,0.07,0.68,0.12,1.01,0.18c0.28,0.05,0.55,0.1,0.83,0.14
			c0.58,0.08,1.15,0.16,1.74,0.22c5.65-4.74,12.63-12.52,17.68-24.49C45.4,64.94,34.24,51.06,25.2,39.43z"/>
	</g>
	<g class="st0">
		<g class="st1">
			<polygon class="st20" points="34.91,80.49 34.91,57 18.8,57 18.8,60.68 0.43,80.49 			"/>
			<polygon class="st21" points="20.23,61.1 4.34,79.16 8.87,79.16 			"/>
			<polygon class="st21" points="21.47,61.37 12.77,79.13 17.6,79.13 			"/>
		</g>
		<rect x="27.54" y="20.68" class="st19" width="13.41" height="20.18"/>
		<rect x="27.54" y="20.68" class="st22" width="13.41" height="3.75"/>
		<rect x="25.89" y="16.08" class="st15" width="16.7" height="6.28"/>
		<path class="st23" d="M48.21,38.05H17.87c-2.66,0-4.83,2.17-4.83,4.83v7.89c0,2.66,2.17,4.83,4.83,4.83h30.34
			c2.66,0,4.83-2.17,4.83-4.83v-7.89C53.04,40.22,50.86,38.05,48.21,38.05z"/>
		<path class="st24" d="M25.36,45.57c-5.05,2.83-9.08,2.67-12.33,1.63v3.56c0,2.66,2.17,4.83,4.83,4.83h19.57
			C38.05,50.33,38.19,38.39,25.36,45.57z"/>
		<path class="st15" d="M71.47,61.8H32.83c-8.16,0-14.84-6.68-14.84-14.84v-0.29c0-8.16,6.68-14.84,14.84-14.84h38.64
			c8.16,0,14.84,6.68,14.84,14.84v0.29C86.31,55.13,79.63,61.8,71.47,61.8z"/>
		<path class="st25" d="M47.07,40.88H31.21c-1.78,0-3.23-1.45-3.23-3.23v-0.06c0-1.78,1.45-3.23,3.23-3.23h15.85
			c1.78,0,3.23,1.45,3.23,3.23v0.06C50.3,39.42,48.84,40.88,47.07,40.88z"/>
		<path class="st19" d="M63.91,42.31c-21.95,16.49-34.48,1.57-45.09-0.38c-0.53,1.53-0.83,3.18-0.83,4.89v0
			c0,8.24,6.74,14.98,14.98,14.98h38.35c8.24,0,14.98-6.74,14.98-14.98v0c0-2.3-0.52-4.47-1.46-6.42
			C81.57,35.09,75.35,33.72,63.91,42.31z"/>
		<rect x="53.76" y="20.56" class="st16" width="40.6" height="41.25"/>
		<rect x="53.76" y="19.27" class="st26" width="40.6" height="10.84"/>
		<path class="st16" d="M93.27,20.61H54.86c-2.93,0-5.31-2.38-5.31-5.31v-0.1c0-2.93,2.38-5.31,5.31-5.31h38.41
			c2.93,0,5.31,2.38,5.31,5.31v0.1C98.58,18.23,96.2,20.61,93.27,20.61z"/>
		<g class="st1">
			<rect x="60.08" y="25.07" class="st3" width="27.98" height="23.52"/>
			<rect x="62.76" y="27.32" class="st10" width="22.61" height="19.01"/>
			<path class="st27" d="M85.37,32.08c-6.37,0.4-13.06,6.09-22.61,6.87v7.39h22.61V32.08z"/>
		</g>
		<g class="st1">
			<path class="st28" d="M96.09,67.93H23.68c-1.97,0-3.59-1.62-3.59-3.59v-0.07c0-1.97,1.62-3.59,3.59-3.59h72.41
				c1.97,0,3.59,1.62,3.59,3.59v0.07C99.68,66.31,98.07,67.93,96.09,67.93z"/>
			<path class="st29" d="M98.27,65.03H21.5c-0.69,0-1.26-0.5-1.38-1.15c-0.02,0.14-0.03,0.28-0.03,0.42c0,1.99,1.63,3.63,3.63,3.63
				h72.34c1.99,0,3.63-1.63,3.63-3.63c0-0.14-0.01-0.28-0.03-0.42C99.53,64.53,98.96,65.03,98.27,65.03z"/>
			<path class="st30" d="M94.94,63.09H49.16c-0.39,0-0.72-0.32-0.72-0.72v-0.01c0-0.39,0.32-0.72,0.72-0.72h45.77
				c0.39,0,0.72,0.32,0.72,0.72v0.01C95.65,62.77,95.33,63.09,94.94,63.09z"/>
		</g>
		<g class="st1">
			<path class="st28" d="M96.09,75.1H23.68c-1.97,0-3.59-1.62-3.59-3.59v-0.07c0-1.97,1.62-3.59,3.59-3.59h72.41
				c1.97,0,3.59,1.62,3.59,3.59v0.07C99.68,73.48,98.07,75.1,96.09,75.1z"/>
			<path class="st29" d="M98.27,72.2H21.5c-0.69,0-1.26-0.5-1.38-1.15c-0.02,0.14-0.03,0.28-0.03,0.42c0,1.99,1.63,3.63,3.63,3.63
				h72.34c1.99,0,3.63-1.63,3.63-3.63c0-0.14-0.01-0.28-0.03-0.42C99.53,71.7,98.96,72.2,98.27,72.2z"/>
			<path class="st30" d="M94.94,70.26H49.16c-0.39,0-0.72-0.32-0.72-0.72v-0.01c0-0.39,0.32-0.72,0.72-0.72h45.77
				c0.39,0,0.72,0.32,0.72,0.72v0.01C95.65,69.94,95.33,70.26,94.94,70.26z"/>
		</g>
		<g class="st1">
			<path class="st29" d="M34.19,37.9c1.05,0,1.9-0.85,1.9-1.9c0-1.05-0.85-1.9-1.9-1.9s-1.9,0.85-1.9,1.9
				C32.28,37.04,33.13,37.9,34.19,37.9z"/>
			<circle class="st29" cx="34.19" cy="43" r="1.9"/>
			<circle class="st29" cx="34.19" cy="50" r="1.9"/>
			<circle class="st29" cx="34.19" cy="57" r="1.9"/>
		</g>
		
			<ellipse transform="matrix(0.9903 -0.1387 0.1387 0.9903 -9.0901 10.8886)" class="st31" cx="73.58" cy="70.67" rx="19.82" ry="19.82"/>
		<g class="st1">
			
				<ellipse transform="matrix(0.9903 -0.1387 0.1387 0.9903 -9.0901 10.8886)" class="st32" cx="73.58" cy="70.67" rx="19.82" ry="19.82"/>
			<g>
				
					<ellipse transform="matrix(0.9871 -0.1602 0.1602 0.9871 -10.3692 12.6986)" class="st3" cx="73.58" cy="70.67" rx="12.53" ry="12.53"/>
				<path class="st5" d="M73.58,83.19c4.72,0,8.83-2.61,10.97-6.47c-7.87-2.69-16.14-9.12-22.52-10.9
					c-0.63,1.49-0.97,3.13-0.97,4.85C61.05,77.58,66.66,83.19,73.58,83.19z"/>
			</g>
		</g>
		<g class="st1">
			
				<ellipse transform="matrix(0.2298 -0.9732 0.9732 0.2298 -47.8348 95.7927)" class="st32" cx="36.6" cy="78.12" rx="12.37" ry="12.37"/>
			<g>
				
					<ellipse transform="matrix(0.2298 -0.9732 0.9732 0.2298 -47.8348 95.7927)" class="st3" cx="36.6" cy="78.12" rx="7.82" ry="7.82"/>
				<path class="st5" d="M36.6,85.93c2.95,0,5.51-1.63,6.84-4.04c-4.91-1.68-10.07-5.69-14.05-6.8c-0.39,0.93-0.61,1.95-0.61,3.03
					C28.79,82.43,32.29,85.93,36.6,85.93z"/>
			</g>
		</g>
		<g class="st1">
			<path class="st20" d="M77.37,70.67c0,2.09-1.7,3.79-3.79,3.79c-2.09,0-3.79-1.7-3.79-3.79s1.7-3.79,3.79-3.79
				C75.67,66.88,77.37,68.57,77.37,70.67z"/>
			<path class="st20" d="M39.46,78.12c0,1.58-1.28,2.86-2.86,2.86s-2.86-1.28-2.86-2.86c0-1.58,1.28-2.86,2.86-2.86
				S39.46,76.54,39.46,78.12z"/>
			<path class="st21" d="M73.7,72.24l-36.31,7.11c-0.71,0.14-1.41-0.33-1.54-1.04l0-0.03c-0.14-0.71,0.33-1.41,1.04-1.54l36.31-7.11
				c0.71-0.14,1.41,0.33,1.54,1.04l0,0.03C74.88,71.41,74.42,72.1,73.7,72.24z"/>
		</g>
	</g>
	<g>
		<g>
			<ellipse class="st3" cx="50" cy="84.25" rx="40.05" ry="16.12"/>
			<g>
				<path class="st20" d="M11.88,36.05v44.64c0,8.48,17.07,15.35,38.12,15.35s38.12-6.87,38.12-15.35V36.05H11.88z"/>
				<path class="st21" d="M11.88,43.64C17.07,50.12,32.17,54.82,50,54.82c17.83,0,32.93-4.69,38.12-11.18v-7.59H11.88V43.64z"/>
				<path class="st21" d="M50,96.03c21.05,0,38.12-6.87,38.12-15.35V66.74c-13.74,23.22-50.01,3.6-76.24,1.47v12.48
					C11.88,89.16,28.95,96.03,50,96.03z"/>
			</g>
			<g>
				<ellipse class="st3" cx="50" cy="36.22" rx="40.05" ry="16.12"/>
				<ellipse class="st10" cx="49.91" cy="36.22" rx="34.41" ry="11.79"/>
				<path class="st27" d="M20.14,42.13c5.96,3.51,17.06,5.88,29.77,5.88c19.01,0,34.41-5.28,34.41-11.79c0-1.06-0.42-2.09-1.18-3.07
					C72.41,45.36,43.01,38.53,20.14,42.13z"/>
				<path class="st5" d="M49.91,26.51c17.98,0,32.74,4.73,34.27,10.75c0.09-0.34,0.14-0.69,0.14-1.04
					c0-6.51-15.41-11.79-34.41-11.79c-19.01,0-34.41,5.28-34.41,11.79c0,0.35,0.05,0.7,0.14,1.04
					C17.18,31.24,31.93,26.51,49.91,26.51z"/>
			</g>
			<g>
				<g>
					<g>
						<polygon class="st3" points="49.96,95.29 38.24,53.63 26,92.57 13.91,43.51 14.48,43.37 26.07,90.4 38.27,51.58 49.96,93.14 
							61.9,50.95 74.62,90.28 86.08,43.43 86.65,43.57 74.7,92.43 61.94,52.96 						"/>
					</g>
					<g>
						<polygon class="st3" points="62.32,95.18 50.47,53.65 38.05,94.93 26.1,50.75 14.47,85.01 13.92,84.82 26.16,48.74 
							38.08,92.8 50.48,51.56 62.3,92.99 74.24,48.33 86.25,84.5 85.7,84.68 74.3,50.37 						"/>
					</g>
				</g>
			</g>
			<g>
				<g>
					<path class="st33" d="M16.97,84.92c0,1.53-1.24,2.77-2.77,2.77c-1.53,0-2.77-1.24-2.77-2.77s1.24-2.77,2.77-2.77
						C15.73,82.15,16.97,83.39,16.97,84.92z"/>
					<path class="st2" d="M16.97,84.92c0-0.13-0.02-0.26-0.04-0.39c-0.8,1.45-3.22,0.57-5.49,0.27c0,0.04-0.01,0.08-0.01,0.12
						c0,1.53,1.24,2.77,2.77,2.77C15.73,87.69,16.97,86.45,16.97,84.92z"/>
				</g>
				<g>
					<circle class="st33" cx="26.13" cy="91.22" r="2.77"/>
					<path class="st2" d="M28.9,91.22c0-0.13-0.02-0.26-0.04-0.39c-0.8,1.45-3.22,0.57-5.49,0.27c0,0.04-0.01,0.08-0.01,0.12
						c0,1.53,1.24,2.77,2.77,2.77C27.66,93.99,28.9,92.75,28.9,91.22z"/>
				</g>
				<g>
					<path class="st33" d="M40.84,93.87c0,1.53-1.24,2.77-2.77,2.77c-1.53,0-2.77-1.24-2.77-2.77s1.24-2.77,2.77-2.77
						C39.6,91.1,40.84,92.34,40.84,93.87z"/>
					<path class="st2" d="M40.84,93.87c0-0.13-0.02-0.26-0.04-0.39c-0.8,1.45-3.22,0.57-5.49,0.27c0,0.04-0.01,0.08-0.01,0.12
						c0,1.53,1.24,2.77,2.77,2.77C39.6,96.64,40.84,95.4,40.84,93.87z"/>
				</g>
				<g>
					<path class="st33" d="M52.77,94.47c0,1.53-1.24,2.77-2.77,2.77c-1.53,0-2.77-1.24-2.77-2.77c0-1.53,1.24-2.77,2.77-2.77
						C51.53,91.7,52.77,92.94,52.77,94.47z"/>
					<path class="st2" d="M52.77,94.47c0-0.13-0.02-0.26-0.04-0.39c-0.8,1.45-3.22,0.57-5.49,0.27c0,0.04-0.01,0.08-0.01,0.12
						c0,1.53,1.24,2.77,2.77,2.77C51.53,97.25,52.77,96,52.77,94.47z"/>
				</g>
				<g>
					<path class="st33" d="M64.71,93.87c0,1.53-1.24,2.77-2.77,2.77c-1.53,0-2.77-1.24-2.77-2.77s1.24-2.77,2.77-2.77
						C63.47,91.1,64.71,92.34,64.71,93.87z"/>
					<path class="st2" d="M64.71,93.87c0-0.13-0.02-0.26-0.04-0.39c-0.8,1.45-3.22,0.57-5.49,0.27c0,0.04-0.01,0.08-0.01,0.12
						c0,1.53,1.24,2.77,2.77,2.77C63.47,96.64,64.71,95.4,64.71,93.87z"/>
				</g>
				<g>
					<circle class="st33" cx="73.87" cy="91.22" r="2.77"/>
					<path class="st2" d="M76.64,91.22c0-0.13-0.02-0.26-0.04-0.39c-0.8,1.45-3.22,0.57-5.49,0.27c0,0.04-0.01,0.08-0.01,0.12
						c0,1.53,1.24,2.77,2.77,2.77C75.4,93.99,76.64,92.75,76.64,91.22z"/>
				</g>
				<g>
					<path class="st33" d="M88.58,84.92c0,1.53-1.24,2.77-2.77,2.77c-1.53,0-2.77-1.24-2.77-2.77s1.24-2.77,2.77-2.77
						C87.33,82.15,88.58,83.39,88.58,84.92z"/>
					<path class="st2" d="M88.58,84.92c0-0.13-0.02-0.26-0.04-0.39c-0.8,1.45-3.22,0.57-5.49,0.27c0,0.04-0.01,0.08-0.01,0.12
						c0,1.53,1.24,2.77,2.77,2.77C87.33,87.69,88.58,86.45,88.58,84.92z"/>
				</g>
			</g>
			<g>
				<g>
					<path class="st33" d="M16.97,43.44c0,1.53-1.24,2.77-2.77,2.77c-1.53,0-2.77-1.24-2.77-2.77c0-1.53,1.24-2.77,2.77-2.77
						C15.73,40.67,16.97,41.91,16.97,43.44z"/>
					<path class="st2" d="M16.97,43.44c0-0.13-0.02-0.26-0.04-0.39c-0.8,1.45-3.22,0.57-5.49,0.27c0,0.04-0.01,0.08-0.01,0.12
						c0,1.53,1.24,2.77,2.77,2.77C15.73,46.21,16.97,44.97,16.97,43.44z"/>
				</g>
				<g>
					<circle class="st33" cx="26.13" cy="49.74" r="2.77"/>
					<path class="st2" d="M28.9,49.74c0-0.13-0.02-0.26-0.04-0.39c-0.8,1.45-3.22,0.57-5.49,0.27c0,0.04-0.01,0.08-0.01,0.12
						c0,1.53,1.24,2.77,2.77,2.77C27.66,52.52,28.9,51.27,28.9,49.74z"/>
				</g>
				<g>
					<path class="st33" d="M40.84,52.39c0,1.53-1.24,2.77-2.77,2.77c-1.53,0-2.77-1.24-2.77-2.77c0-1.53,1.24-2.77,2.77-2.77
						C39.6,49.62,40.84,50.86,40.84,52.39z"/>
					<path class="st2" d="M40.84,52.39c0-0.13-0.02-0.26-0.04-0.39c-0.8,1.45-3.22,0.57-5.49,0.27c0,0.04-0.01,0.08-0.01,0.12
						c0,1.53,1.24,2.77,2.77,2.77C39.6,55.16,40.84,53.92,40.84,52.39z"/>
				</g>
				<g>
					<path class="st33" d="M52.77,52.99c0,1.53-1.24,2.77-2.77,2.77c-1.53,0-2.77-1.24-2.77-2.77c0-1.53,1.24-2.77,2.77-2.77
						C51.53,50.22,52.77,51.46,52.77,52.99z"/>
					<path class="st2" d="M52.77,52.99c0-0.13-0.02-0.26-0.04-0.39c-0.8,1.45-3.22,0.57-5.49,0.27c0,0.04-0.01,0.08-0.01,0.12
						c0,1.53,1.24,2.77,2.77,2.77C51.53,55.77,52.77,54.53,52.77,52.99z"/>
				</g>
				<g>
					<path class="st33" d="M64.71,52.39c0,1.53-1.24,2.77-2.77,2.77c-1.53,0-2.77-1.24-2.77-2.77c0-1.53,1.24-2.77,2.77-2.77
						C63.47,49.62,64.71,50.86,64.71,52.39z"/>
					<path class="st2" d="M64.71,52.39c0-0.13-0.02-0.26-0.04-0.39c-0.8,1.45-3.22,0.57-5.49,0.27c0,0.04-0.01,0.08-0.01,0.12
						c0,1.53,1.24,2.77,2.77,2.77C63.47,55.16,64.71,53.92,64.71,52.39z"/>
				</g>
				<g>
					<circle class="st33" cx="73.87" cy="49.74" r="2.77"/>
					<path class="st2" d="M76.64,49.74c0-0.13-0.02-0.26-0.04-0.39c-0.8,1.45-3.22,0.57-5.49,0.27c0,0.04-0.01,0.08-0.01,0.12
						c0,1.53,1.24,2.77,2.77,2.77C75.4,52.52,76.64,51.27,76.64,49.74z"/>
				</g>
				<g>
					<path class="st33" d="M88.58,43.44c0,1.53-1.24,2.77-2.77,2.77c-1.53,0-2.77-1.24-2.77-2.77c0-1.53,1.24-2.77,2.77-2.77
						C87.33,40.67,88.58,41.91,88.58,43.44z"/>
					<path class="st2" d="M88.58,43.44c0-0.13-0.02-0.26-0.04-0.39c-0.8,1.45-3.22,0.57-5.49,0.27c0,0.04-0.01,0.08-0.01,0.12
						c0,1.53,1.24,2.77,2.77,2.77C87.33,46.21,88.58,44.97,88.58,43.44z"/>
				</g>
			</g>
		</g>
		<g>
			<g>
				<path class="st34" d="M72.85,3.77l-31.8,31.28c-0.57,0.57-1.51,0.57-2.08,0l0,0c-0.57-0.57-0.57-1.51,0-2.08l31.8-31.28
					c0.57-0.57,1.51-0.57,2.08,0l0,0C73.42,2.26,73.42,3.2,72.85,3.77z"/>
				<path class="st35" d="M41.05,35.05l13.16-12.94c-1.43,0.12-2.62-0.11-3.63-0.56L38.97,32.97c-0.57,0.57-0.57,1.51,0,2.08
					C39.54,35.62,40.48,35.62,41.05,35.05z"/>
				
					<ellipse transform="matrix(0.6486 -0.7611 0.7611 0.6486 -13.0918 41.7718)" class="st36" cx="38.69" cy="35.06" rx="6.76" ry="6.76"/>
				<path class="st37" d="M45.32,33.69c-2.98,1.2-8.59-0.81-13.35,0.66c-0.02,0.23-0.04,0.47-0.04,0.71c0,3.73,3.03,6.76,6.76,6.76
					c3.73,0,6.76-3.03,6.76-6.76C45.46,34.6,45.41,34.14,45.32,33.69z"/>
			</g>
			<g>
				<path class="st34" d="M27.94,3.77l31.8,31.28c0.57,0.57,1.51,0.57,2.08,0l0,0c0.57-0.57,0.57-1.51,0-2.08L30.03,1.69
					c-0.57-0.57-1.51-0.57-2.08,0l0,0C27.37,2.26,27.37,3.2,27.94,3.77z"/>
				<path class="st38" d="M59.74,35.05L46.58,22.11c1.43,0.12,2.62-0.11,3.63-0.56l11.61,11.42c0.57,0.57,0.57,1.51,0,2.08
					S60.31,35.62,59.74,35.05z"/>
				<path class="st36" d="M55.33,35.06c0,3.73,3.03,6.76,6.76,6.76c3.73,0,6.76-3.03,6.76-6.76c0-3.73-3.03-6.76-6.76-6.76
					C58.36,28.3,55.33,31.33,55.33,35.06z"/>
				<path class="st37" d="M55.47,33.69c2.98,1.2,8.59-0.81,13.35,0.66c0.02,0.23,0.04,0.47,0.04,0.71c0,3.73-3.03,6.76-6.76,6.76
					c-3.73,0-6.76-3.03-6.76-6.76C55.33,34.6,55.38,34.14,55.47,33.69z"/>
			</g>
		</g>
	</g>
	<g class="st0">
		<g class="st1">
			<g>
				<path class="st35" d="M30.12,46.86C6.11,50.77,7,73.13,15.84,73.38c8.84,0.25,3.79-14.65,17.18-21.98L30.12,46.86z"/>
				<path class="st39" d="M33.02,51.4l-1.66-2.59c-3.58,1.21-6.51,3.84-8.07,7.52c-2.84,6.7-5.03,17.22-12.52,12.86
					c0.9,2.47,2.7,4.13,5.07,4.2C24.68,73.64,19.63,58.73,33.02,51.4z"/>
			</g>
			<g>
				<path class="st35" d="M7.06,80.43c0.51-7.77,8.34-8.94,13.01-6.03c0,0,0.51-8.4,7.26-9.79c6.76-1.39,22.04,11.05,15.73,23.94
					c0,0-15.84,10.56-25.14,8.21C6.43,93.85,7.06,80.43,7.06,80.43z"/>
				<path class="st39" d="M27.34,64.6c-0.22,0.05-0.43,0.1-0.64,0.16c-0.02,0.01-0.04,0.01-0.06,0.02c-0.01,0-0.02,0.01-0.04,0.01
					c-0.18,0.05-0.35,0.11-0.52,0.17c-0.02,0.01-0.03,0.01-0.05,0.02c-0.18,0.07-0.36,0.14-0.53,0.22c0,0,0,0,0,0
					c-0.18,0.09-0.36,0.18-0.53,0.28c-2.87,8.92,1.6,22.57,10.81,27.18c4.22-2.09,7.28-4.13,7.28-4.13
					C49.38,75.66,34.09,63.21,27.34,64.6z"/>
				<ellipse transform="matrix(0.866 -0.5 0.5 0.866 -40.7774 19.7835)" class="st40" cx="16.53" cy="85.98" rx="8.59" ry="11.17"/>
				<path class="st34" d="M20.55,83.76c1.99,3.44,1.46,7.47-1.19,9c-2.65,1.53-6.4-0.03-8.39-3.47c-1.99-3.44-1.46-7.47,1.19-9
					C14.8,78.76,18.56,80.31,20.55,83.76z"/>
			</g>
		</g>
		<g class="st1">
			<g>
				<path class="st35" d="M69.88,46.86c24,3.92,23.12,26.28,14.28,26.53c-8.84,0.25-3.79-14.65-17.18-21.98L69.88,46.86z"/>
				<path class="st39" d="M66.98,51.4l1.66-2.59c3.58,1.21,6.51,3.84,8.07,7.52c2.84,6.7,5.03,17.22,12.52,12.86
					c-0.9,2.47-2.7,4.13-5.07,4.2C75.32,73.64,80.37,58.73,66.98,51.4z"/>
			</g>
			<g>
				<path class="st35" d="M92.94,80.43c-0.51-7.77-8.34-8.94-13.01-6.03c0,0-0.51-8.4-7.26-9.79c-6.76-1.39-22.04,11.05-15.73,23.94
					c0,0,15.84,10.56,25.14,8.21C93.57,93.85,92.94,80.43,92.94,80.43z"/>
				<path class="st39" d="M72.66,64.6c0.22,0.05,0.43,0.1,0.64,0.16c0.02,0.01,0.04,0.01,0.06,0.02c0.01,0,0.02,0.01,0.04,0.01
					c0.18,0.05,0.35,0.11,0.52,0.17c0.02,0.01,0.03,0.01,0.05,0.02c0.18,0.07,0.36,0.14,0.53,0.22c0,0,0,0,0,0
					c0.18,0.09,0.36,0.18,0.53,0.28c2.87,8.92-1.6,22.57-10.81,27.18c-4.22-2.09-7.28-4.13-7.28-4.13
					C50.62,75.66,65.91,63.21,72.66,64.6z"/>
				
					<ellipse transform="matrix(0.5 -0.866 0.866 0.5 -32.7278 115.2808)" class="st40" cx="83.47" cy="85.98" rx="11.17" ry="8.59"/>
				<path class="st34" d="M79.45,83.76c-1.99,3.44-1.46,7.47,1.19,9c2.65,1.53,6.4-0.03,8.39-3.47c1.99-3.44,1.46-7.47-1.19-9
					C85.2,78.76,81.44,80.31,79.45,83.76z"/>
			</g>
		</g>
		<path class="st41" d="M75.27,69.33c0,16.13-11.36,19.97-25.38,19.97s-25.38-3.84-25.38-19.97c0-16.13,11.36-29.21,25.38-29.21
			S75.27,53.2,75.27,69.33z"/>
		<path class="st42" d="M49.89,40.12c-9.06,0-17.01,5.47-21.5,13.69c10.13-1.02,30.63,20.43,42.58-0.73
			C66.42,45.26,58.68,40.12,49.89,40.12z"/>
		<path class="st43" d="M65.58,68.83c0,9.97-7.02,12.34-15.69,12.34S34.2,78.8,34.2,68.83s7.02-18.06,15.69-18.06
			S65.58,58.86,65.58,68.83z"/>
		<path class="st44" d="M63.89,60.69c-2.59-5.88-7.88-9.92-14-9.92c-4.55,0-8.65,2.23-11.51,5.79
			C46.32,60.08,55.9,65.16,63.89,60.69z"/>
		<g class="st1">
			<path class="st20" d="M70.13,46.84c-1.13-1.89-3.57-2.5-5.46-1.38c-15.29,9.13-28.86,0.48-29.45,0.1
				c-1.83-1.21-4.29-0.71-5.51,1.11c-1.22,1.83-0.73,4.3,1.1,5.52c0.49,0.32,8.31,5.42,19.26,5.42c5.6,0,12.01-1.33,18.67-5.31
				C70.64,51.17,71.25,48.72,70.13,46.84z"/>
			<path class="st21" d="M69.42,48.05c-6.9,4.63-13.54,6.18-19.34,6.18c-11.34,0-19.44-5.93-19.94-6.3
				c-0.28-0.21-0.52-0.45-0.73-0.71c-0.8,1.75-0.24,3.86,1.41,4.96c0.49,0.32,8.31,5.42,19.26,5.42c5.6,0,12.01-1.33,18.67-5.31
				c1.76-1.05,2.41-3.25,1.58-5.07C70.07,47.54,69.76,47.82,69.42,48.05z"/>
			<path class="st20" d="M59.26,50.43c8.84,0.88,1.89,19.45,1.89,19.45s9.6,3.03,13.01-5.31c0,0,1.22-12.17-8.46-16.72L59.26,50.43z
				"/>
		</g>
		<g class="st1">
			<g>
				<path class="st35" d="M73.81,32.03c0,13.21-10.71,20.21-23.92,20.21s-23.92-7-23.92-20.21c0-13.21,10.71-23.92,23.92-23.92
					S73.81,18.82,73.81,32.03z"/>
				<path class="st39" d="M73.69,34.33C57.82,47.4,37.96,27.4,25.98,31.56c0,0.16-0.01,0.32-0.01,0.48
					c0,13.21,10.71,20.21,23.92,20.21C62.31,52.25,72.52,46.05,73.69,34.33z"/>
				<g>
					<g>
						<path class="st37" d="M42.44,26.9c0,1.74-1.41,3.16-3.16,3.16s-3.16-1.41-3.16-3.16s1.41-3.16,3.16-3.16
							S42.44,25.15,42.44,26.9z"/>
						<path class="st36" d="M41.28,26.44c-0.3,0.34-0.96,0.24-1.48-0.22c-0.51-0.46-0.69-1.11-0.38-1.45
							c0.3-0.34,0.96-0.24,1.48,0.22C41.41,25.45,41.59,26.1,41.28,26.44z"/>
					</g>
					<g>
						<path class="st37" d="M63.66,26.9c0,1.74-1.41,3.16-3.16,3.16c-1.74,0-3.16-1.41-3.16-3.16s1.41-3.16,3.16-3.16
							C62.24,23.74,63.66,25.15,63.66,26.9z"/>
						<path class="st36" d="M62.51,26.44c-0.3,0.34-0.96,0.24-1.48-0.22c-0.51-0.46-0.69-1.11-0.38-1.45
							c0.3-0.34,0.96-0.24,1.48,0.22C62.64,25.45,62.81,26.1,62.51,26.44z"/>
					</g>
				</g>
				<g>
					<g>
						<path class="st35" d="M34.54,5.91c3.66,3.66,3.66,9.58,0,13.24s-9.58,3.66-13.24,0c-3.66-3.66-1.86-7.78,1.8-11.44
							C26.75,4.05,30.88,2.25,34.54,5.91z"/>
						<path class="st34" d="M32.42,8.69c2.3,2.3,2.3,6.04,0,8.34c-2.3,2.3-6.04,2.3-8.34,0c-2.3-2.3-1.17-4.9,1.13-7.2
							C27.52,7.52,30.12,6.39,32.42,8.69z"/>
					</g>
					<g>
						<path class="st35" d="M65.24,5.91c-3.66,3.66-3.66,9.58,0,13.24c3.66,3.66,9.58,3.66,13.24,0c3.66-3.66,1.86-7.78-1.8-11.44
							S68.9,2.25,65.24,5.91z"/>
						<path class="st34" d="M67.36,8.69c-2.3,2.3-2.3,6.04,0,8.34s6.04,2.3,8.34,0c2.3-2.3,1.17-4.9-1.13-7.2
							C72.26,7.52,69.66,6.39,67.36,8.69z"/>
					</g>
				</g>
			</g>
			<g>
				<path class="st34" d="M61.17,36.87c0,5.09-5.05,7.79-11.28,7.79s-11.28-2.7-11.28-7.79s5.05-9.22,11.28-9.22
					S61.17,31.78,61.17,36.87z"/>
				<g>
					<path class="st36" d="M54.67,32.12c0,1.37-2.14,2.1-4.78,2.1c-2.64,0-4.78-0.73-4.78-2.1c0-1.37,2.14-2.49,4.78-2.49
						C52.53,29.63,54.67,30.75,54.67,32.12z"/>
					<path class="st37" d="M54.67,32.12c0,1.37-2.14,2.1-4.78,2.1c-2.64,0-4.78-0.73-4.78-2.1c0-1.37,2.14-2.49,4.78-2.49
						C52.53,29.63,54.67,30.75,54.67,32.12z"/>
					<path class="st36" d="M53.49,31.21c0,1.03-1.61,1.58-3.6,1.58s-3.6-0.55-3.6-1.58s1.61-1.87,3.6-1.87S53.49,30.18,53.49,31.21z
						"/>
					<line class="st45" x1="49.89" y1="33.34" x2="49.89" y2="37.63"/>
					<path class="st45" d="M44.64,37.44c1.83,3.38,5.12,1.6,5.24,0.02"/>
					<path class="st45" d="M55.15,37.44c-1.83,3.38-5.12,1.6-5.24,0.02"/>
				</g>
			</g>
		</g>
	</g>
</g>
</svg>
