<?xml version="1.0" encoding="utf-8"?>
<!-- Generator: Adobe Illustrator 26.1.0, SVG Export Plug-In . SVG Version: 6.00 Build 0)  -->
<svg version="1.1" id="Capa_1" xmlns="http://www.w3.org/2000/svg" xmlns:xlink="http://www.w3.org/1999/xlink" x="0px" y="0px"
	 viewBox="0 0 23 19" style="enable-background:new 0 0 23 19;" xml:space="preserve">
<style type="text/css">
	.st0{fill:#636363;}
</style>
<path class="st0" d="M23,2.2c-0.9,0.4-1.8,0.6-2.7,0.8c1-0.6,1.7-1.5,2.1-2.6c-0.9,0.6-1.9,0.9-3,1.2C18.5,0.6,17.3,0,15.9,0
	c-2.6,0-4.7,2.2-4.7,4.8c0,0.4,0,0.7,0.1,1.1c-3.9-0.2-7.4-2.1-9.7-5C1.2,1.6,1,2.4,1,3.3c0,1.7,0.8,3.1,2.1,4
	C2.3,7.3,1.5,7,0.9,6.7c0,0,0,0,0,0.1c0,2.3,1.6,4.3,3.8,4.7c-0.4,0.1-0.8,0.2-1.2,0.2c-0.3,0-0.6,0-0.9-0.1
	c0.6,1.9,2.3,3.3,4.4,3.3c-1.6,1.3-3.6,2-5.8,2c-0.4,0-0.8,0-1.1-0.1C2.1,18.2,4.6,19,7.2,19c8.7,0,13.4-7.3,13.4-13.6
	c0-0.2,0-0.4,0-0.6C21.6,4.1,22.4,3.2,23,2.2z"/>
</svg>
