<?xml version="1.0" encoding="utf-8"?>
<!-- Generator: Adobe Illustrator 26.1.0, SVG Export Plug-In . SVG Version: 6.00 Build 0)  -->
<svg version="1.1" xmlns="http://www.w3.org/2000/svg" xmlns:xlink="http://www.w3.org/1999/xlink" x="0px" y="0px"
	 viewBox="0 0 467 225" style="enable-background:new 0 0 467 225;" xml:space="preserve">
<style type="text/css">
	.st0{fill:#FFFFFF;}
	.st1{fill:#E02B52;}
	.st2{fill:#282325;}
	.st3{fill:#383838;}
	.st4{fill:#383838;stroke:#383838;stroke-width:2;stroke-miterlimit:10;}
</style>
<g id="Capa_2">
</g>
<g id="Capa_1">
</g>
<g id="Capa_3">
	<path class="st3" d="M105.91,120.08c0,7.34,0,16.06,0,22.06c-3,2-3.8,2.63-6.5,3.71c-21.73,8.65-43.21,8.45-62.54-5.7
		C17.15,125.7,10.81,104.9,13.34,81.27c5.75-53.84,60.57-65.14,90.86-45.88c2.06,1.1,4.05,2.32,6.71,3.86c0-3.11,0-7.11,0-10.11
		c4.75,0,10.34,0,15.5,0v39c-5,0-9.5,0-13.5,0c-2.26-1.18-3.73-4.25-5.85-7.35c-17.44-25.41-56.21-21.84-69.29,5.95
		c-7.42,15.75-6.95,31.99,1.39,47.31c11.76,21.59,40.38,27.18,59.75,12.05C100.98,124.48,102.65,122.79,105.91,120.08z"/>
	<path class="st3" d="M114.91,93.35c17.52,0,35.14-1.2,51,0.78c16,2,24.85,15.6,25,34.54c0.15,19.04-8,31.46-25,36.46
		c-9.82,2.89-21.28,1.25-32.17,2l0.17,30.5c4.17,0,9.81,0,15,0v14.71h-49v-14.71c5,0,10,0,15,0V93.35z M133.57,152.13
		c6.34,0,19.86,0.24,29.1-2c9.07-2.2,12.4-11.31,11.51-23.63c-0.7-9.61-5.47-16.38-13.97-17.58c-8.69-1.23-17.3-0.79-26.64-0.79
		V152.13z"/>
	<g>
		<g>
			<path class="st4" d="M182.03,59.04c0,16.11-11.16,23.13-21.69,23.13c-11.79,0-20.88-8.64-20.88-22.41
				c0-14.58,9.54-23.13,21.6-23.13C173.57,36.63,182.03,45.72,182.03,59.04z M147.47,59.49c0,9.54,5.49,16.74,13.23,16.74
				c7.56,0,13.23-7.11,13.23-16.92c0-7.38-3.69-16.74-13.05-16.74C151.52,42.57,147.47,51.21,147.47,59.49z"/>
			<path class="st4" d="M192.02,17.28h7.92v63.9h-7.92V17.28z"/>
			<path class="st4" d="M217.67,60.84c0.18,10.71,7.02,15.12,14.94,15.12c5.67,0,9.09-0.99,12.06-2.25l1.35,5.67
				c-2.79,1.26-7.56,2.7-14.49,2.7c-13.41,0-21.42-8.82-21.42-21.96c0-13.14,7.74-23.49,20.43-23.49c14.22,0,18,12.51,18,20.52
				c0,1.62-0.18,2.88-0.27,3.69H217.67z M240.89,55.17c0.09-5.04-2.07-12.87-10.98-12.87c-8.01,0-11.52,7.38-12.15,12.87H240.89z"/>
			<path class="st4" d="M295.87,37.62c-0.18,3.15-0.36,6.66-0.36,11.97v25.29c0,9.99-1.98,16.11-6.21,19.89
				c-4.23,3.96-10.35,5.22-15.84,5.22c-5.22,0-10.98-1.26-14.49-3.6l1.98-6.03c2.88,1.8,7.38,3.42,12.78,3.42
				c8.1,0,14.04-4.23,14.04-15.21v-4.86h-0.18c-2.43,4.05-7.11,7.29-13.86,7.29c-10.8,0-18.54-9.18-18.54-21.24
				c0-14.76,9.63-23.13,19.62-23.13c7.56,0,11.7,3.96,13.59,7.56h0.18l0.36-6.57H295.87z M287.68,54.81c0-1.35-0.09-2.52-0.45-3.6
				c-1.44-4.59-5.31-8.37-11.07-8.37c-7.56,0-12.96,6.39-12.96,16.47c0,8.55,4.32,15.66,12.87,15.66c4.86,0,9.27-3.06,10.98-8.1
				c0.45-1.35,0.63-2.88,0.63-4.23V54.81z"/>
			<path class="st4" d="M316.93,25.38c0.09,2.7-1.89,4.86-5.04,4.86c-2.79,0-4.77-2.16-4.77-4.86c0-2.79,2.07-4.95,4.95-4.95
				C315.04,20.43,316.93,22.59,316.93,25.38z M308.12,81.18V37.62h7.92v43.56H308.12z"/>
			<path class="st4" d="M368.59,59.04c0,16.11-11.16,23.13-21.69,23.13c-11.79,0-20.88-8.64-20.88-22.41
				c0-14.58,9.54-23.13,21.6-23.13C360.13,36.63,368.59,45.72,368.59,59.04z M334.03,59.49c0,9.54,5.49,16.74,13.23,16.74
				c7.56,0,13.23-7.11,13.23-16.92c0-7.38-3.69-16.74-13.05-16.74C338.08,42.57,334.03,51.21,334.03,59.49z"/>
		</g>
	</g>
	<g>
		<path class="st4" d="M240.03,144.04c0,16.11-11.16,23.13-21.69,23.13c-11.79,0-20.88-8.64-20.88-22.41
			c0-14.58,9.54-23.13,21.6-23.13C231.57,121.63,240.03,130.72,240.03,144.04z M205.47,144.49c0,9.54,5.49,16.74,13.23,16.74
			c7.56,0,13.23-7.11,13.23-16.92c0-7.38-3.69-16.74-13.05-16.74C209.52,127.57,205.47,136.21,205.47,144.49z"/>
		<path class="st4" d="M250.02,136.21c0-5.13-0.09-9.54-0.36-13.59h6.93l0.27,8.55h0.36c1.98-5.85,6.75-9.54,12.06-9.54
			c0.9,0,1.53,0.09,2.25,0.27v7.47c-0.81-0.18-1.62-0.27-2.7-0.27c-5.58,0-9.54,4.23-10.62,10.17c-0.18,1.08-0.36,2.34-0.36,3.69
			v23.22h-7.83V136.21z"/>
		<path class="st4" d="M291.15,110.11v12.51h11.34v6.03h-11.34v23.49c0,5.4,1.53,8.46,5.94,8.46c2.07,0,3.6-0.27,4.59-0.54
			l0.36,5.94c-1.53,0.63-3.96,1.08-7.02,1.08c-3.69,0-6.66-1.17-8.55-3.33c-2.25-2.34-3.06-6.21-3.06-11.34v-23.76h-6.75v-6.03h6.75
			v-10.44L291.15,110.11z"/>
		<path class="st4" d="M335.51,166.18l-0.63-5.49h-0.27c-2.43,3.42-7.11,6.48-13.32,6.48c-8.82,0-13.32-6.21-13.32-12.51
			c0-10.53,9.36-16.29,26.19-16.2v-0.9c0-3.6-0.99-10.08-9.9-10.08c-4.05,0-8.28,1.26-11.34,3.24l-1.8-5.22
			c3.6-2.34,8.82-3.87,14.31-3.87c13.32,0,16.56,9.09,16.56,17.82v16.29c0,3.78,0.18,7.47,0.72,10.44H335.51z M334.34,143.95
			c-8.64-0.18-18.45,1.35-18.45,9.81c0,5.13,3.42,7.56,7.47,7.56c5.67,0,9.27-3.6,10.53-7.29c0.27-0.81,0.45-1.71,0.45-2.52V143.95z
			"/>
		<path class="st4" d="M354.77,102.28h7.92v63.9h-7.92V102.28z"/>
		<path class="st4" d="M380.42,145.84c0.18,10.71,7.02,15.12,14.94,15.12c5.67,0,9.09-0.99,12.06-2.25l1.35,5.67
			c-2.79,1.26-7.56,2.7-14.49,2.7c-13.41,0-21.42-8.82-21.42-21.96c0-13.14,7.74-23.49,20.43-23.49c14.22,0,18,12.51,18,20.52
			c0,1.62-0.18,2.88-0.27,3.69H380.42z M403.64,140.17c0.09-5.04-2.07-12.87-10.98-12.87c-8.01,0-11.52,7.38-12.15,12.87H403.64z"/>
		<path class="st4" d="M420.02,158.08c2.34,1.53,6.48,3.15,10.44,3.15c5.76,0,8.46-2.88,8.46-6.48c0-3.78-2.25-5.85-8.1-8.01
			c-7.83-2.79-11.52-7.11-11.52-12.33c0-7.02,5.67-12.78,15.03-12.78c4.41,0,8.28,1.26,10.71,2.7l-1.98,5.76
			c-1.71-1.08-4.86-2.52-8.91-2.52c-4.68,0-7.29,2.7-7.29,5.94c0,3.6,2.61,5.22,8.28,7.38c7.56,2.88,11.43,6.66,11.43,13.14
			c0,7.65-5.94,13.05-16.29,13.05c-4.77,0-9.18-1.17-12.24-2.97L420.02,158.08z"/>
	</g>
</g>
</svg>
