<?xml version="1.0" encoding="utf-8"?>
<!-- Generator: Adobe Illustrator 26.1.0, SVG Export Plug-In . SVG Version: 6.00 Build 0)  -->
<svg version="1.1" xmlns="http://www.w3.org/2000/svg" xmlns:xlink="http://www.w3.org/1999/xlink" x="0px" y="0px"
	 viewBox="0 0 100 100" style="enable-background:new 0 0 100 100;" xml:space="preserve">
<style type="text/css">
	.st0{fill:#65A2EA;}
	.st1{fill:#FFC154;}
	.st2{fill:#FFDEA9;}
	.st3{fill:#F29538;}
	.st4{fill:#366899;}
	.st5{fill:#224E72;}
	.st6{fill:#7AAFFC;}
	.st7{fill:#FFFFFF;}
	.st8{fill:#C0D3F9;}
	.st9{fill:#8FC2FF;}
	.st10{display:none;}
	.st11{display:inline;fill:#FFFFFF;}
	.st12{display:inline;fill:#DCEAF7;}
	.st13{display:inline;fill:#7AAFFC;}
	.st14{display:inline;fill:#E51F20;}
	.st15{display:inline;fill:#FFC154;}
	.st16{display:inline;fill:#F29538;}
	.st17{display:inline;fill:#5C9EE0;}
	.st18{display:inline;}
	.st19{fill:#E51F20;}
	.st20{fill:#A01F5D;}
	.st21{display:inline;fill:#4E7FA8;}
	.st22{display:inline;fill:#6D8699;}
	.st23{display:inline;fill:#576D7A;}
	.st24{display:inline;fill:#8DCEFF;}
	.st25{display:inline;fill:#A01F5D;}
	.st26{fill:#DCEAF7;}
	.st27{fill:#6D8699;}
	.st28{fill:#576D7A;}
	.st29{fill:#8EACBF;}
	.st30{display:inline;fill:#495E68;}
	.st31{fill:#495E68;}
	.st32{fill:#E5AC73;}
	.st33{fill:#C1814D;}
	.st34{fill:#7C5D42;}
	.st35{fill:#5E4634;}
	.st36{fill:#D19259;}
	.st37{fill:#AA6F44;}
	.st38{fill:#D3945B;}
	.st39{display:inline;fill:#C1814D;}
	.st40{display:inline;fill:#AA6F44;}
	.st41{display:inline;fill:#E5AC73;}
	.st42{display:inline;fill:#D3945B;}
	.st43{fill:none;stroke:#5E4634;stroke-width:0.5574;stroke-miterlimit:10;}
	.st44{fill:#5E9BE5;}
	.st45{fill:#4885B7;}
</style>
<g id="BACKGROUND">
</g>
<g id="OBJECTS">
	<g>
		<g>
			<path class="st0" d="M50.74,14.74V6.27c0-0.41-0.33-0.74-0.74-0.74l0,0c-0.41,0-0.74,0.33-0.74,0.74v8.47
				c0,0.41,0.33,0.74,0.74,0.74l0,0C50.41,15.48,50.74,15.15,50.74,14.74z"/>
			<g>
				<circle class="st1" cx="50" cy="6.2" r="2.65"/>
				<path class="st2" d="M52.14,5.59c-0.16,0.16-0.62-0.02-1.01-0.42c-0.39-0.39-0.58-0.85-0.42-1.01c0.16-0.16,0.62,0.02,1.01,0.42
					C52.12,4.97,52.3,5.42,52.14,5.59z"/>
				<path class="st3" d="M50,8.85c1.17,0,2.17-0.76,2.52-1.82c-2.2,0.42-3.34-1.57-4.44-2.65c-0.45,0.48-0.73,1.11-0.73,1.82
					C47.35,7.67,48.54,8.85,50,8.85z"/>
			</g>
			<path class="st4" d="M52.06,13.56h-4.12c-3.08,0-5.57,2.49-5.57,5.57v0.72c0,3.08,2.49,5.57,5.57,5.57h4.12
				c3.08,0,5.57-2.49,5.57-5.57v-0.72C57.63,16.05,55.13,13.56,52.06,13.56z"/>
			<path class="st5" d="M57.63,19.86v-0.72c0-0.43-0.05-0.85-0.15-1.25c-7.42,0.88-10.99-1.22-13-3.11
				c-1.28,1.02-2.11,2.59-2.11,4.36v0.72c0,3.08,2.49,5.57,5.57,5.57h4.12C55.13,25.42,57.63,22.93,57.63,19.86z"/>
		</g>
		<g>
			<g>
				<rect x="35.13" y="69.33" class="st4" width="5.06" height="22.15"/>
				<rect x="35.13" y="69.33" class="st5" width="5.06" height="11.97"/>
				<polygon class="st6" points="33.65,85.53 41.89,85.53 41.89,96.45 29.58,96.45 32.68,93.35 				"/>
			</g>
			<g>
				<g>
					<path class="st4" d="M9.06,68.58c-3.07-4.04-3.07-9.78,0-13.64c2.21-2.78,9.22-8.39,26.56-0.57l-1.88,4.18
						c-9.99-4.51-17.88-4.79-21.09-0.75c-1.79,2.24-1.76,5.61,0.06,8.01L9.06,68.58z"/>
				</g>
				<path class="st5" d="M33.73,58.55l1.88-4.18c-3.5-1.58-6.57-2.6-9.27-3.22c0.25,1.41,0.13,3.06-0.36,4.63
					C28.37,56.38,30.97,57.3,33.73,58.55z"/>
				<g>
					<path class="st6" d="M7.94,75.09c-2.8-2.8-2.8-7.35,0-10.15c2.8-2.8,7.35-2.8,10.15,0l-2.95,2.95c-1.17-1.17-3.08-1.17-4.25,0
						c-1.17,1.17-1.17,3.08,0,4.25L7.94,75.09z"/>
				</g>
			</g>
			<g>
				
					<rect x="59.81" y="69.33" transform="matrix(-1 -1.224647e-16 1.224647e-16 -1 124.6728 160.8066)" class="st4" width="5.06" height="22.15"/>
				
					<rect x="59.81" y="69.33" transform="matrix(-1 -1.224647e-16 1.224647e-16 -1 124.6728 150.6241)" class="st5" width="5.06" height="11.97"/>
				<polygon class="st6" points="66.35,85.53 58.11,85.53 58.11,96.45 70.42,96.45 67.32,93.35 				"/>
			</g>
			<g>
				<g>
					<path class="st4" d="M90.94,68.58c3.07-4.04,3.07-9.78,0-13.64c-2.21-2.78-9.22-8.39-26.56-0.57l1.88,4.18
						c9.99-4.51,17.88-4.79,21.09-0.75c1.79,2.24,1.76,5.61-0.06,8.01L90.94,68.58z"/>
				</g>
				<path class="st5" d="M66.27,58.55l-1.88-4.18c3.5-1.58,6.57-2.6,9.27-3.22c-0.25,1.41-0.13,3.06,0.36,4.63
					C71.63,56.38,69.03,57.3,66.27,58.55z"/>
				<g>
					<path class="st6" d="M92.06,75.09c2.8-2.8,2.8-7.35,0-10.15c-2.8-2.8-7.35-2.8-10.15,0l2.95,2.95c1.17-1.17,3.08-1.17,4.25,0
						c1.17,1.17,1.17,3.08,0,4.25L92.06,75.09z"/>
				</g>
			</g>
		</g>
		<path class="st5" d="M61.6,53.44v-6.05c0-2.7-2.19-4.89-4.89-4.89H43.3c-2.48,0-4.52,1.85-4.84,4.24c-0.02,0-0.03,0-0.05,0.01
			v0.65v8.25v2.13c0,1.53,1.24,2.76,2.76,2.76h2.13H56.7h2.13c1.53,0,2.76-1.24,2.76-2.76L61.6,53.44L61.6,53.44z"/>
		<g>
			<path class="st0" d="M26,34.89h-8.47c-0.41,0-0.74-0.33-0.74-0.74l0,0c0-0.41,0.33-0.74,0.74-0.74H26c0.41,0,0.74,0.33,0.74,0.74
				l0,0C26.74,34.56,26.41,34.89,26,34.89z"/>
			
				<ellipse transform="matrix(0.7071 -0.7071 0.7071 0.7071 -15.5688 30.8058)" class="st4" cx="29.4" cy="34.2" rx="6.2" ry="6.2"/>
			<g>
				<path class="st1" d="M20.11,34.12c0,1.46-1.19,2.65-2.65,2.65c-1.46,0-2.65-1.19-2.65-2.65c0-1.46,1.19-2.65,2.65-2.65
					C18.93,31.47,20.11,32.65,20.11,34.12z"/>
				<path class="st2" d="M19.6,33.5c-0.16,0.16-0.62-0.02-1.01-0.42c-0.39-0.39-0.58-0.85-0.42-1.01c0.16-0.16,0.62,0.02,1.01,0.42
					C19.58,32.89,19.77,33.34,19.6,33.5z"/>
				<path class="st3" d="M17.46,36.77c1.17,0,2.17-0.76,2.52-1.82c-2.2,0.42-3.34-1.57-4.44-2.65c-0.45,0.48-0.73,1.11-0.73,1.82
					C14.81,35.58,16,36.77,17.46,36.77z"/>
			</g>
			<path class="st0" d="M27.9,33.09c-0.87,1.51-2.3,2.32-3.2,1.81c-0.89-0.51-0.91-2.16-0.03-3.67c0.87-1.51,2.3-2.32,3.2-1.81
				S28.78,31.57,27.9,33.09z"/>
		</g>
		<g>
			<path class="st0" d="M74,34.89h8.47c0.41,0,0.74-0.33,0.74-0.74l0,0c0-0.41-0.33-0.74-0.74-0.74H74c-0.41,0-0.74,0.33-0.74,0.74
				l0,0C73.26,34.56,73.59,34.89,74,34.89z"/>
			
				<ellipse transform="matrix(0.9688 -0.2477 0.2477 0.9688 -6.2697 18.5484)" class="st4" cx="70.59" cy="34.2" rx="6.2" ry="6.2"/>
			<g>
				<path class="st1" d="M85.19,34.12c0,1.46-1.19,2.65-2.65,2.65c-1.46,0-2.65-1.19-2.65-2.65c0-1.46,1.19-2.65,2.65-2.65
					C84,31.47,85.19,32.65,85.19,34.12z"/>
				<path class="st2" d="M84.67,33.5c-0.16,0.16-0.62-0.02-1.01-0.42c-0.39-0.39-0.58-0.85-0.42-1.01c0.16-0.16,0.62,0.02,1.01,0.42
					C84.65,32.89,84.84,33.34,84.67,33.5z"/>
				<path class="st3" d="M82.53,36.77c1.17,0,2.17-0.76,2.52-1.82c-2.2,0.42-3.34-1.57-4.44-2.65c-0.45,0.48-0.73,1.11-0.73,1.82
					C79.88,35.58,81.07,36.77,82.53,36.77z"/>
			</g>
			<path class="st0" d="M72.09,33.09c0.87,1.51,2.3,2.32,3.2,1.81c0.89-0.51,0.91-2.16,0.03-3.67c-0.87-1.51-2.3-2.32-3.2-1.81
				C71.23,29.93,71.22,31.57,72.09,33.09z"/>
		</g>
		<g>
			<path class="st6" d="M64.95,50.63H35.05c-3.08,0-5.57-2.49-5.57-5.57V24.27c0-3.08,2.49-5.57,5.57-5.57h29.91
				c3.08,0,5.57,2.49,5.57,5.57v20.78C70.52,48.13,68.03,50.63,64.95,50.63z"/>
			<path class="st0" d="M34.37,50.63h31.26c2.7,0,4.89-2.19,4.89-4.89v-7.66c-17.15,3.29-29.3-13.77-41.05-11.86v19.51
				C29.48,48.44,31.67,50.63,34.37,50.63z"/>
		</g>
		<g>
			<path class="st6" d="M64.95,77.78H35.05c-3.08,0-5.57-2.49-5.57-5.57V58.15c0-3.08,2.49-5.57,5.57-5.57h29.91
				c3.08,0,5.57,2.49,5.57,5.57v14.06C70.52,75.29,68.03,77.78,64.95,77.78z"/>
			<path class="st0" d="M34.37,77.78h31.26c2.7,0,4.89-2.19,4.89-4.89v-7.66c-17.15,3.29-29.3-7.05-41.05-5.13v12.79
				C29.48,75.59,31.67,77.78,34.37,77.78z"/>
		</g>
		<g>
			<g>
				
					<ellipse transform="matrix(0.2298 -0.9732 0.9732 0.2298 12.8283 84.4473)" class="st4" cx="59.77" cy="34.12" rx="8.15" ry="8.15"/>
				
					<ellipse transform="matrix(0.2298 -0.9732 0.9732 0.2298 12.8283 84.4473)" class="st1" cx="59.77" cy="34.12" rx="6.73" ry="6.73"/>
				<path class="st2" d="M65.2,32.56c-0.42,0.42-1.57-0.06-2.57-1.06c-1-1-1.48-2.15-1.06-2.57c0.42-0.42,1.57,0.06,2.57,1.06
					C65.14,30.99,65.61,32.14,65.2,32.56z"/>
				<path class="st3" d="M59.77,40.85c2.98,0,5.5-1.94,6.38-4.62c-5.57,1.08-8.47-3.97-11.27-6.73c-1.14,1.21-1.85,2.83-1.85,4.62
					C53.04,37.83,56.05,40.85,59.77,40.85z"/>
			</g>
			<g>
				
					<ellipse transform="matrix(0.7333 -0.6799 0.6799 0.7333 -12.4671 36.4579)" class="st4" cx="40.23" cy="34.12" rx="8.15" ry="8.15"/>
				<g>
					
						<ellipse transform="matrix(0.7071 -0.7071 0.7071 0.7071 -12.3415 38.443)" class="st1" cx="40.23" cy="34.12" rx="6.73" ry="6.73"/>
					<path class="st2" d="M45.66,32.56c-0.42,0.42-1.57-0.06-2.57-1.06c-1-1-1.48-2.15-1.06-2.57c0.42-0.42,1.57,0.06,2.57,1.06
						C45.61,30.99,46.08,32.14,45.66,32.56z"/>
					<path class="st3" d="M40.23,40.85c2.98,0,5.5-1.94,6.38-4.62c-5.57,1.08-8.47-3.97-11.27-6.73c-1.14,1.21-1.85,2.83-1.85,4.62
						C33.51,37.83,36.52,40.85,40.23,40.85z"/>
				</g>
			</g>
		</g>
		<g>
			<path class="st7" d="M54.81,47.2h-9.63c-1.25,0-2.27-1.02-2.27-2.27l0,0c0-1.25,1.02-2.27,2.27-2.27h9.63
				c1.25,0,2.27,1.02,2.27,2.27l0,0C57.08,46.18,56.06,47.2,54.81,47.2z"/>
			<path class="st8" d="M54.81,42.67h-9.63c-1.25,0-2.27,1.02-2.27,2.27l0,0c0,0.3,0.06,0.58,0.16,0.84
				c3.88-2.56,9.5-3.09,13.72,0.25c0.18-0.32,0.28-0.7,0.28-1.09l0,0C57.08,43.69,56.06,42.67,54.81,42.67z"/>
		</g>
		<g>
			<path class="st4" d="M44.45,47.45L44.45,47.45c-0.17,0-0.31-0.14-0.31-0.31V42.7c0-0.17,0.14-0.31,0.31-0.31l0,0
				c0.17,0,0.31,0.14,0.31,0.31v4.44C44.75,47.31,44.62,47.45,44.45,47.45z"/>
			<path class="st4" d="M47.22,47.45L47.22,47.45c-0.17,0-0.31-0.14-0.31-0.31V42.7c0-0.17,0.14-0.31,0.31-0.31l0,0
				c0.17,0,0.31,0.14,0.31,0.31v4.44C47.53,47.31,47.39,47.45,47.22,47.45z"/>
			<path class="st4" d="M50,47.45L50,47.45c-0.17,0-0.31-0.14-0.31-0.31V42.7c0-0.17,0.14-0.31,0.31-0.31l0,0
				c0.17,0,0.31,0.14,0.31,0.31v4.44C50.31,47.31,50.17,47.45,50,47.45z"/>
			<path class="st4" d="M52.78,47.45L52.78,47.45c-0.17,0-0.31-0.14-0.31-0.31V42.7c0-0.17,0.14-0.31,0.31-0.31l0,0
				c0.17,0,0.31,0.14,0.31,0.31v4.44C53.09,47.31,52.95,47.45,52.78,47.45z"/>
			<path class="st4" d="M55.55,47.45L55.55,47.45c-0.17,0-0.31-0.14-0.31-0.31V42.7c0-0.17,0.14-0.31,0.31-0.31l0,0
				c0.17,0,0.31,0.14,0.31,0.31v4.44C55.86,47.31,55.72,47.45,55.55,47.45z"/>
		</g>
		<path class="st9" d="M64.3,55.79H35.7c-1.29,0-2.34,1.05-2.34,2.34v3.75v7.89v2.83c0,1.29,1.05,2.34,2.34,2.34h2.83h22.94h2.83
			c1.29,0,2.34-1.05,2.34-2.34v-2.83v-5v-6.64C66.64,56.83,65.6,55.79,64.3,55.79z"/>
		<g>
			<path class="st4" d="M65.04,64.71c0,1.84-1.49,3.33-3.33,3.33c-1.84,0-3.33-1.49-3.33-3.33c0-1.84,1.49-3.33,3.33-3.33
				C63.55,61.38,65.04,62.87,65.04,64.71z"/>
			<path class="st0" d="M64.24,64.71c0,1.4-1.13,2.53-2.53,2.53c-1.4,0-2.53-1.13-2.53-2.53c0-1.4,1.13-2.53,2.53-2.53
				C63.11,62.18,64.24,63.32,64.24,64.71z"/>
		</g>
	</g>
	<g class="st10">
		<ellipse transform="matrix(0.2226 -0.9749 0.9749 0.2226 -9.8741 87.6177)" class="st11" cx="50" cy="50" rx="41.45" ry="41.45"/>
		<path class="st12" d="M89.5,62.6C45.6,80.14,29.96,41.3,15.38,27.21C11.07,33.75,8.55,41.58,8.55,50
			c0,22.89,18.56,41.45,41.45,41.45C68.5,91.45,84.16,79.33,89.5,62.6z"/>
		<path class="st13" d="M9.7,59.69c4.04,16.84,18.34,29.69,35.94,31.53c9.59-8.06,23.05-24.85,24.32-56.15
			C69.96,35.07,26.24,18.13,9.7,59.69z"/>
		<path class="st14" d="M22.49,19c26.57-9.5,48.23,15.98,48.23,15.98c3.77-7.54,3.04-14.63,0.88-20.36
			C65.32,10.77,57.92,8.55,50,8.55C39.44,8.55,29.81,12.5,22.49,19z"/>
		<path class="st15" d="M91.45,50c0-3.29-0.39-6.49-1.12-9.55c-9.23-6.64-19.44-4.81-19.44-4.81s13.87,16.7,14.7,35.62
			C89.31,65.04,91.45,57.77,91.45,50z"/>
		<path class="st12" d="M74.12,30.83c2.68,3.25,2.55,7.79-0.29,10.13c-2.84,2.34-7.32,1.61-10-1.64c-2.68-3.25-2.55-7.79,0.29-10.13
			C66.97,26.84,71.44,27.57,74.12,30.83z"/>
		<path class="st11" d="M72.69,30.88c1.44,1.13,2.03,2.76,1.34,3.65c-0.7,0.89-2.43,0.69-3.86-0.44c-1.44-1.13-2.03-2.76-1.34-3.65
			C69.52,29.56,71.25,29.75,72.69,30.88z"/>
		<path class="st16" d="M84.72,64.32c0.46,2.26,0.76,4.58,0.87,6.93c0.23-0.39,0.46-0.78,0.68-1.17c0,0,0-0.01,0.01-0.01
			c0.24-0.44,0.48-0.88,0.7-1.33c0.06-0.12,0.12-0.25,0.18-0.37c0.17-0.34,0.33-0.67,0.49-1.01c0.06-0.14,0.13-0.28,0.19-0.42
			c0.15-0.34,0.3-0.68,0.44-1.03c0.05-0.13,0.11-0.26,0.16-0.38c0.16-0.39,0.31-0.79,0.46-1.19c0.03-0.08,0.06-0.16,0.09-0.24
			c0.18-0.49,0.35-0.99,0.51-1.49C87.86,63.25,86.28,63.81,84.72,64.32z"/>
		<path class="st17" d="M25.2,38.93C19.13,43.21,13.64,49.78,9.7,59.69c0.12,0.51,0.25,1.01,0.39,1.52
			c0.01,0.04,0.02,0.08,0.03,0.11c0.58,2.03,1.3,4,2.17,5.9c0.01,0.03,0.02,0.05,0.03,0.08c0.21,0.46,0.43,0.91,0.66,1.36
			c0.02,0.04,0.04,0.08,0.06,0.11c0.92,1.81,1.98,3.55,3.14,5.2c0.05,0.08,0.11,0.15,0.16,0.23c0.27,0.37,0.54,0.74,0.82,1.1
			c0.05,0.07,0.11,0.14,0.17,0.21c0.88,1.13,1.82,2.2,2.81,3.23c0.07,0.08,0.15,0.15,0.22,0.23c0.29,0.29,0.58,0.58,0.88,0.87
			c0.12,0.12,0.25,0.24,0.38,0.36c0.29,0.27,0.58,0.54,0.88,0.81c0.13,0.11,0.25,0.22,0.38,0.33c0.97,0.84,1.98,1.64,3.03,2.39
			c0.18,0.13,0.36,0.26,0.55,0.39c0.29,0.2,0.58,0.39,0.87,0.59c0.21,0.14,0.42,0.27,0.62,0.4c0.29,0.18,0.58,0.36,0.87,0.54
			c0.23,0.13,0.46,0.26,0.69,0.39c0.48,0.27,0.97,0.54,1.46,0.79c0.28,0.14,0.55,0.29,0.83,0.43c0.28,0.14,0.56,0.27,0.85,0.4
			c0.27,0.12,0.53,0.25,0.81,0.36c0.29,0.12,0.57,0.25,0.86,0.36c0.28,0.12,0.57,0.23,0.85,0.33c0.28,0.11,0.56,0.22,0.85,0.32
			c0.35,0.13,0.71,0.24,1.06,0.36c0.4,0.13,0.81,0.26,1.22,0.38c0.36,0.11,0.72,0.21,1.08,0.31c0.28,0.07,0.56,0.14,0.85,0.21
			c0.32,0.08,0.64,0.15,0.97,0.22c0.29,0.06,0.58,0.12,0.87,0.18c0.34,0.07,0.68,0.12,1.01,0.18c0.28,0.05,0.55,0.1,0.83,0.14
			c0.58,0.08,1.15,0.16,1.74,0.22c5.65-4.74,12.63-12.52,17.68-24.49C45.4,64.44,34.24,50.56,25.2,38.93z"/>
	</g>
	<g class="st10">
		<g class="st18">
			<polygon class="st19" points="34.91,79.99 34.91,56.5 18.8,56.5 18.8,60.18 0.43,79.99 			"/>
			<polygon class="st20" points="20.23,60.6 4.34,78.66 8.87,78.66 			"/>
			<polygon class="st20" points="21.47,60.87 12.77,78.63 17.6,78.63 			"/>
		</g>
		<rect x="27.54" y="20.18" class="st17" width="13.41" height="20.18"/>
		<rect x="27.54" y="20.18" class="st21" width="13.41" height="3.75"/>
		<rect x="25.89" y="15.58" class="st13" width="16.7" height="6.28"/>
		<path class="st22" d="M48.21,37.55H17.87c-2.66,0-4.83,2.17-4.83,4.83v7.89c0,2.66,2.17,4.83,4.83,4.83h30.34
			c2.66,0,4.83-2.17,4.83-4.83v-7.89C53.04,39.72,50.86,37.55,48.21,37.55z"/>
		<path class="st23" d="M25.36,45.07c-5.05,2.83-9.08,2.67-12.33,1.63v3.56c0,2.66,2.17,4.83,4.83,4.83h19.57
			C38.05,49.83,38.19,37.89,25.36,45.07z"/>
		<path class="st13" d="M71.47,61.3H32.83c-8.16,0-14.84-6.68-14.84-14.84v-0.29c0-8.16,6.68-14.84,14.84-14.84h38.64
			c8.16,0,14.84,6.68,14.84,14.84v0.29C86.31,54.63,79.63,61.3,71.47,61.3z"/>
		<path class="st24" d="M47.07,40.38H31.21c-1.78,0-3.23-1.45-3.23-3.23v-0.06c0-1.78,1.45-3.23,3.23-3.23h15.85
			c1.78,0,3.23,1.45,3.23,3.23v0.06C50.3,38.92,48.84,40.38,47.07,40.38z"/>
		<path class="st17" d="M63.91,41.81c-21.95,16.49-34.48,1.57-45.09-0.38c-0.53,1.53-0.83,3.18-0.83,4.89v0
			c0,8.24,6.74,14.98,14.98,14.98h38.35c8.24,0,14.98-6.74,14.98-14.98v0c0-2.3-0.52-4.47-1.46-6.42
			C81.57,34.59,75.35,33.22,63.91,41.81z"/>
		<rect x="53.76" y="20.06" class="st14" width="40.6" height="41.25"/>
		<rect x="53.76" y="18.77" class="st25" width="40.6" height="10.84"/>
		<path class="st14" d="M93.27,20.11H54.86c-2.93,0-5.31-2.38-5.31-5.31v-0.1c0-2.93,2.38-5.31,5.31-5.31h38.41
			c2.93,0,5.31,2.38,5.31,5.31v0.1C98.58,17.73,96.2,20.11,93.27,20.11z"/>
		<g class="st18">
			<rect x="60.08" y="24.57" class="st1" width="27.98" height="23.52"/>
			<rect x="62.76" y="26.82" class="st7" width="22.61" height="19.01"/>
			<path class="st26" d="M85.37,31.58c-6.37,0.4-13.06,6.09-22.61,6.87v7.39h22.61V31.58z"/>
		</g>
		<g class="st18">
			<path class="st27" d="M96.09,67.43H23.68c-1.97,0-3.59-1.62-3.59-3.59v-0.07c0-1.97,1.62-3.59,3.59-3.59h72.41
				c1.97,0,3.59,1.62,3.59,3.59v0.07C99.68,65.81,98.07,67.43,96.09,67.43z"/>
			<path class="st28" d="M98.27,64.53H21.5c-0.69,0-1.26-0.5-1.38-1.15c-0.02,0.14-0.03,0.28-0.03,0.42c0,1.99,1.63,3.63,3.63,3.63
				h72.34c1.99,0,3.63-1.63,3.63-3.63c0-0.14-0.01-0.28-0.03-0.42C99.53,64.03,98.96,64.53,98.27,64.53z"/>
			<path class="st29" d="M94.94,62.59H49.16c-0.39,0-0.72-0.32-0.72-0.72v-0.01c0-0.39,0.32-0.72,0.72-0.72h45.77
				c0.39,0,0.72,0.32,0.72,0.72v0.01C95.65,62.27,95.33,62.59,94.94,62.59z"/>
		</g>
		<g class="st18">
			<path class="st27" d="M96.09,74.6H23.68c-1.97,0-3.59-1.62-3.59-3.59v-0.07c0-1.97,1.62-3.59,3.59-3.59h72.41
				c1.97,0,3.59,1.62,3.59,3.59v0.07C99.68,72.98,98.07,74.6,96.09,74.6z"/>
			<path class="st28" d="M98.27,71.7H21.5c-0.69,0-1.26-0.5-1.38-1.15c-0.02,0.14-0.03,0.28-0.03,0.42c0,1.99,1.63,3.63,3.63,3.63
				h72.34c1.99,0,3.63-1.63,3.63-3.63c0-0.14-0.01-0.28-0.03-0.42C99.53,71.2,98.96,71.7,98.27,71.7z"/>
			<path class="st29" d="M94.94,69.76H49.16c-0.39,0-0.72-0.32-0.72-0.72v-0.01c0-0.39,0.32-0.72,0.72-0.72h45.77
				c0.39,0,0.72,0.32,0.72,0.72v0.01C95.65,69.44,95.33,69.76,94.94,69.76z"/>
		</g>
		<g class="st18">
			<path class="st28" d="M34.19,37.4c1.05,0,1.9-0.85,1.9-1.9c0-1.05-0.85-1.9-1.9-1.9s-1.9,0.85-1.9,1.9
				C32.28,36.54,33.13,37.4,34.19,37.4z"/>
			<circle class="st28" cx="34.19" cy="42.5" r="1.9"/>
			<circle class="st28" cx="34.19" cy="49.5" r="1.9"/>
			<circle class="st28" cx="34.19" cy="56.5" r="1.9"/>
		</g>
		
			<ellipse transform="matrix(0.9903 -0.1387 0.1387 0.9903 -9.0208 10.8838)" class="st30" cx="73.58" cy="70.17" rx="19.82" ry="19.82"/>
		<g class="st18">
			
				<ellipse transform="matrix(0.9903 -0.1387 0.1387 0.9903 -9.0208 10.8838)" class="st31" cx="73.58" cy="70.17" rx="19.82" ry="19.82"/>
			<g>
				
					<ellipse transform="matrix(0.9871 -0.1602 0.1602 0.9871 -10.2891 12.6922)" class="st1" cx="73.58" cy="70.17" rx="12.53" ry="12.53"/>
				<path class="st3" d="M73.58,82.69c4.72,0,8.83-2.61,10.97-6.47c-7.87-2.69-16.14-9.12-22.52-10.9
					c-0.63,1.49-0.97,3.13-0.97,4.85C61.05,77.08,66.66,82.69,73.58,82.69z"/>
			</g>
		</g>
		<g class="st18">
			
				<ellipse transform="matrix(0.2298 -0.9732 0.9732 0.2298 -47.3482 95.4076)" class="st31" cx="36.6" cy="77.62" rx="12.37" ry="12.37"/>
			<g>
				
					<ellipse transform="matrix(0.2298 -0.9732 0.9732 0.2298 -47.3482 95.4076)" class="st1" cx="36.6" cy="77.62" rx="7.82" ry="7.82"/>
				<path class="st3" d="M36.6,85.43c2.95,0,5.51-1.63,6.84-4.04c-4.91-1.68-10.07-5.69-14.05-6.8c-0.39,0.93-0.61,1.95-0.61,3.03
					C28.79,81.93,32.29,85.43,36.6,85.43z"/>
			</g>
		</g>
		<g class="st18">
			<path class="st19" d="M77.37,70.17c0,2.09-1.7,3.79-3.79,3.79c-2.09,0-3.79-1.7-3.79-3.79s1.7-3.79,3.79-3.79
				C75.67,66.38,77.37,68.07,77.37,70.17z"/>
			<path class="st19" d="M39.46,77.62c0,1.58-1.28,2.86-2.86,2.86s-2.86-1.28-2.86-2.86c0-1.58,1.28-2.86,2.86-2.86
				S39.46,76.04,39.46,77.62z"/>
			<path class="st20" d="M73.7,71.74l-36.31,7.11c-0.71,0.14-1.41-0.33-1.54-1.04l0-0.03c-0.14-0.71,0.33-1.41,1.04-1.54l36.31-7.11
				c0.71-0.14,1.41,0.33,1.54,1.04l0,0.03C74.88,70.91,74.42,71.6,73.7,71.74z"/>
		</g>
	</g>
	<g class="st10">
		<g class="st18">
			<ellipse class="st1" cx="50" cy="83.75" rx="40.05" ry="16.12"/>
			<g>
				<path class="st19" d="M11.88,35.55v44.64c0,8.48,17.07,15.35,38.12,15.35s38.12-6.87,38.12-15.35V35.55H11.88z"/>
				<path class="st20" d="M11.88,43.14C17.07,49.62,32.17,54.32,50,54.32c17.83,0,32.93-4.69,38.12-11.18v-7.59H11.88V43.14z"/>
				<path class="st20" d="M50,95.53c21.05,0,38.12-6.87,38.12-15.35V66.24c-13.74,23.22-50.01,3.6-76.24,1.47v12.48
					C11.88,88.66,28.95,95.53,50,95.53z"/>
			</g>
			<g>
				<ellipse class="st1" cx="50" cy="35.72" rx="40.05" ry="16.12"/>
				<ellipse class="st7" cx="49.91" cy="35.72" rx="34.41" ry="11.79"/>
				<path class="st26" d="M20.14,41.63c5.96,3.51,17.06,5.88,29.77,5.88c19.01,0,34.41-5.28,34.41-11.79c0-1.06-0.42-2.09-1.18-3.07
					C72.41,44.86,43.01,38.03,20.14,41.63z"/>
				<path class="st3" d="M49.91,26.01c17.98,0,32.74,4.73,34.27,10.75c0.09-0.34,0.14-0.69,0.14-1.04
					c0-6.51-15.41-11.79-34.41-11.79c-19.01,0-34.41,5.28-34.41,11.79c0,0.35,0.05,0.7,0.14,1.04
					C17.18,30.74,31.93,26.01,49.91,26.01z"/>
			</g>
			<g>
				<g>
					<g>
						<polygon class="st1" points="49.96,94.79 38.24,53.13 26,92.07 13.91,43.01 14.48,42.87 26.07,89.9 38.27,51.08 49.96,92.64 
							61.9,50.45 74.62,89.78 86.08,42.93 86.65,43.07 74.7,91.93 61.94,52.46 						"/>
					</g>
					<g>
						<polygon class="st1" points="62.32,94.68 50.47,53.15 38.05,94.43 26.1,50.25 14.47,84.51 13.92,84.32 26.16,48.24 
							38.08,92.3 50.48,51.06 62.3,92.49 74.24,47.83 86.25,84 85.7,84.18 74.3,49.87 						"/>
					</g>
				</g>
			</g>
			<g>
				<g>
					<path class="st9" d="M16.97,84.42c0,1.53-1.24,2.77-2.77,2.77c-1.53,0-2.77-1.24-2.77-2.77s1.24-2.77,2.77-2.77
						C15.73,81.65,16.97,82.89,16.97,84.42z"/>
					<path class="st0" d="M16.97,84.42c0-0.13-0.02-0.26-0.04-0.39c-0.8,1.45-3.22,0.57-5.49,0.27c0,0.04-0.01,0.08-0.01,0.12
						c0,1.53,1.24,2.77,2.77,2.77C15.73,87.19,16.97,85.95,16.97,84.42z"/>
				</g>
				<g>
					<circle class="st9" cx="26.13" cy="90.72" r="2.77"/>
					<path class="st0" d="M28.9,90.72c0-0.13-0.02-0.26-0.04-0.39c-0.8,1.45-3.22,0.57-5.49,0.27c0,0.04-0.01,0.08-0.01,0.12
						c0,1.53,1.24,2.77,2.77,2.77C27.66,93.49,28.9,92.25,28.9,90.72z"/>
				</g>
				<g>
					<path class="st9" d="M40.84,93.37c0,1.53-1.24,2.77-2.77,2.77c-1.53,0-2.77-1.24-2.77-2.77s1.24-2.77,2.77-2.77
						C39.6,90.6,40.84,91.84,40.84,93.37z"/>
					<path class="st0" d="M40.84,93.37c0-0.13-0.02-0.26-0.04-0.39c-0.8,1.45-3.22,0.57-5.49,0.27c0,0.04-0.01,0.08-0.01,0.12
						c0,1.53,1.24,2.77,2.77,2.77C39.6,96.14,40.84,94.9,40.84,93.37z"/>
				</g>
				<g>
					<path class="st9" d="M52.77,93.97c0,1.53-1.24,2.77-2.77,2.77c-1.53,0-2.77-1.24-2.77-2.77c0-1.53,1.24-2.77,2.77-2.77
						C51.53,91.2,52.77,92.44,52.77,93.97z"/>
					<path class="st0" d="M52.77,93.97c0-0.13-0.02-0.26-0.04-0.39c-0.8,1.45-3.22,0.57-5.49,0.27c0,0.04-0.01,0.08-0.01,0.12
						c0,1.53,1.24,2.77,2.77,2.77C51.53,96.75,52.77,95.5,52.77,93.97z"/>
				</g>
				<g>
					<path class="st9" d="M64.71,93.37c0,1.53-1.24,2.77-2.77,2.77c-1.53,0-2.77-1.24-2.77-2.77s1.24-2.77,2.77-2.77
						C63.47,90.6,64.71,91.84,64.71,93.37z"/>
					<path class="st0" d="M64.71,93.37c0-0.13-0.02-0.26-0.04-0.39c-0.8,1.45-3.22,0.57-5.49,0.27c0,0.04-0.01,0.08-0.01,0.12
						c0,1.53,1.24,2.77,2.77,2.77C63.47,96.14,64.71,94.9,64.71,93.37z"/>
				</g>
				<g>
					<circle class="st9" cx="73.87" cy="90.72" r="2.77"/>
					<path class="st0" d="M76.64,90.72c0-0.13-0.02-0.26-0.04-0.39c-0.8,1.45-3.22,0.57-5.49,0.27c0,0.04-0.01,0.08-0.01,0.12
						c0,1.53,1.24,2.77,2.77,2.77C75.4,93.49,76.64,92.25,76.64,90.72z"/>
				</g>
				<g>
					<path class="st9" d="M88.58,84.42c0,1.53-1.24,2.77-2.77,2.77c-1.53,0-2.77-1.24-2.77-2.77s1.24-2.77,2.77-2.77
						C87.33,81.65,88.58,82.89,88.58,84.42z"/>
					<path class="st0" d="M88.58,84.42c0-0.13-0.02-0.26-0.04-0.39c-0.8,1.45-3.22,0.57-5.49,0.27c0,0.04-0.01,0.08-0.01,0.12
						c0,1.53,1.24,2.77,2.77,2.77C87.33,87.19,88.58,85.95,88.58,84.42z"/>
				</g>
			</g>
			<g>
				<g>
					<path class="st9" d="M16.97,42.94c0,1.53-1.24,2.77-2.77,2.77c-1.53,0-2.77-1.24-2.77-2.77c0-1.53,1.24-2.77,2.77-2.77
						C15.73,40.17,16.97,41.41,16.97,42.94z"/>
					<path class="st0" d="M16.97,42.94c0-0.13-0.02-0.26-0.04-0.39c-0.8,1.45-3.22,0.57-5.49,0.27c0,0.04-0.01,0.08-0.01,0.12
						c0,1.53,1.24,2.77,2.77,2.77C15.73,45.71,16.97,44.47,16.97,42.94z"/>
				</g>
				<g>
					<circle class="st9" cx="26.13" cy="49.24" r="2.77"/>
					<path class="st0" d="M28.9,49.24c0-0.13-0.02-0.26-0.04-0.39c-0.8,1.45-3.22,0.57-5.49,0.27c0,0.04-0.01,0.08-0.01,0.12
						c0,1.53,1.24,2.77,2.77,2.77C27.66,52.02,28.9,50.77,28.9,49.24z"/>
				</g>
				<g>
					<path class="st9" d="M40.84,51.89c0,1.53-1.24,2.77-2.77,2.77c-1.53,0-2.77-1.24-2.77-2.77c0-1.53,1.24-2.77,2.77-2.77
						C39.6,49.12,40.84,50.36,40.84,51.89z"/>
					<path class="st0" d="M40.84,51.89c0-0.13-0.02-0.26-0.04-0.39c-0.8,1.45-3.22,0.57-5.49,0.27c0,0.04-0.01,0.08-0.01,0.12
						c0,1.53,1.24,2.77,2.77,2.77C39.6,54.66,40.84,53.42,40.84,51.89z"/>
				</g>
				<g>
					<path class="st9" d="M52.77,52.49c0,1.53-1.24,2.77-2.77,2.77c-1.53,0-2.77-1.24-2.77-2.77c0-1.53,1.24-2.77,2.77-2.77
						C51.53,49.72,52.77,50.96,52.77,52.49z"/>
					<path class="st0" d="M52.77,52.49c0-0.13-0.02-0.26-0.04-0.39c-0.8,1.45-3.22,0.57-5.49,0.27c0,0.04-0.01,0.08-0.01,0.12
						c0,1.53,1.24,2.77,2.77,2.77C51.53,55.27,52.77,54.03,52.77,52.49z"/>
				</g>
				<g>
					<path class="st9" d="M64.71,51.89c0,1.53-1.24,2.77-2.77,2.77c-1.53,0-2.77-1.24-2.77-2.77c0-1.53,1.24-2.77,2.77-2.77
						C63.47,49.12,64.71,50.36,64.71,51.89z"/>
					<path class="st0" d="M64.71,51.89c0-0.13-0.02-0.26-0.04-0.39c-0.8,1.45-3.22,0.57-5.49,0.27c0,0.04-0.01,0.08-0.01,0.12
						c0,1.53,1.24,2.77,2.77,2.77C63.47,54.66,64.71,53.42,64.71,51.89z"/>
				</g>
				<g>
					<circle class="st9" cx="73.87" cy="49.24" r="2.77"/>
					<path class="st0" d="M76.64,49.24c0-0.13-0.02-0.26-0.04-0.39c-0.8,1.45-3.22,0.57-5.49,0.27c0,0.04-0.01,0.08-0.01,0.12
						c0,1.53,1.24,2.77,2.77,2.77C75.4,52.02,76.64,50.77,76.64,49.24z"/>
				</g>
				<g>
					<path class="st9" d="M88.58,42.94c0,1.53-1.24,2.77-2.77,2.77c-1.53,0-2.77-1.24-2.77-2.77c0-1.53,1.24-2.77,2.77-2.77
						C87.33,40.17,88.58,41.41,88.58,42.94z"/>
					<path class="st0" d="M88.58,42.94c0-0.13-0.02-0.26-0.04-0.39c-0.8,1.45-3.22,0.57-5.49,0.27c0,0.04-0.01,0.08-0.01,0.12
						c0,1.53,1.24,2.77,2.77,2.77C87.33,45.71,88.58,44.47,88.58,42.94z"/>
				</g>
			</g>
		</g>
		<g class="st18">
			<g>
				<path class="st32" d="M72.85,3.27l-31.8,31.28c-0.57,0.57-1.51,0.57-2.08,0l0,0c-0.57-0.57-0.57-1.51,0-2.08l31.8-31.28
					c0.57-0.57,1.51-0.57,2.08,0l0,0C73.42,1.76,73.42,2.7,72.85,3.27z"/>
				<path class="st33" d="M41.05,34.55l13.16-12.94c-1.43,0.12-2.62-0.11-3.63-0.56L38.97,32.47c-0.57,0.57-0.57,1.51,0,2.08
					C39.54,35.12,40.48,35.12,41.05,34.55z"/>
				
					<ellipse transform="matrix(0.6486 -0.7611 0.7611 0.6486 -12.7112 41.5961)" class="st34" cx="38.69" cy="34.56" rx="6.76" ry="6.76"/>
				<path class="st35" d="M45.32,33.19c-2.98,1.2-8.59-0.81-13.35,0.66c-0.02,0.23-0.04,0.47-0.04,0.71c0,3.73,3.03,6.76,6.76,6.76
					c3.73,0,6.76-3.03,6.76-6.76C45.46,34.1,45.41,33.64,45.32,33.19z"/>
			</g>
			<g>
				<path class="st32" d="M27.94,3.27l31.8,31.28c0.57,0.57,1.51,0.57,2.08,0l0,0c0.57-0.57,0.57-1.51,0-2.08L30.03,1.19
					c-0.57-0.57-1.51-0.57-2.08,0l0,0C27.37,1.76,27.37,2.7,27.94,3.27z"/>
				<path class="st36" d="M59.74,34.55L46.58,21.61c1.43,0.12,2.62-0.11,3.63-0.56l11.61,11.42c0.57,0.57,0.57,1.51,0,2.08
					S60.31,35.12,59.74,34.55z"/>
				<path class="st34" d="M55.33,34.56c0,3.73,3.03,6.76,6.76,6.76c3.73,0,6.76-3.03,6.76-6.76c0-3.73-3.03-6.76-6.76-6.76
					C58.36,27.8,55.33,30.83,55.33,34.56z"/>
				<path class="st35" d="M55.47,33.19c2.98,1.2,8.59-0.81,13.35,0.66c0.02,0.23,0.04,0.47,0.04,0.71c0,3.73-3.03,6.76-6.76,6.76
					c-3.73,0-6.76-3.03-6.76-6.76C55.33,34.1,55.38,33.64,55.47,33.19z"/>
			</g>
		</g>
	</g>
	<g class="st10">
		<g class="st18">
			<g>
				<path class="st33" d="M30.12,46.36C6.11,50.27,7,72.63,15.84,72.88c8.84,0.25,3.79-14.65,17.18-21.98L30.12,46.36z"/>
				<path class="st37" d="M33.02,50.9l-1.66-2.59c-3.58,1.21-6.51,3.84-8.07,7.52c-2.84,6.7-5.03,17.22-12.52,12.86
					c0.9,2.47,2.7,4.13,5.07,4.2C24.68,73.14,19.63,58.23,33.02,50.9z"/>
			</g>
			<g>
				<path class="st33" d="M7.06,79.93c0.51-7.77,8.34-8.94,13.01-6.03c0,0,0.51-8.4,7.26-9.79c6.76-1.39,22.04,11.05,15.73,23.94
					c0,0-15.84,10.56-25.14,8.21C6.43,93.35,7.06,79.93,7.06,79.93z"/>
				<path class="st37" d="M27.34,64.1c-0.22,0.05-0.43,0.1-0.64,0.16c-0.02,0.01-0.04,0.01-0.06,0.02c-0.01,0-0.02,0.01-0.04,0.01
					c-0.18,0.05-0.35,0.11-0.52,0.17c-0.02,0.01-0.03,0.01-0.05,0.02c-0.18,0.07-0.36,0.14-0.53,0.22c0,0,0,0,0,0
					c-0.18,0.09-0.36,0.18-0.53,0.28c-2.87,8.92,1.6,22.57,10.81,27.18c4.22-2.09,7.28-4.13,7.28-4.13
					C49.38,75.16,34.09,62.71,27.34,64.1z"/>
				<ellipse transform="matrix(0.866 -0.5 0.5 0.866 -40.5274 19.7165)" class="st38" cx="16.53" cy="85.48" rx="8.59" ry="11.17"/>
				<path class="st32" d="M20.55,83.26c1.99,3.44,1.46,7.47-1.19,9c-2.65,1.53-6.4-0.03-8.39-3.47c-1.99-3.44-1.46-7.47,1.19-9
					C14.8,78.26,18.56,79.81,20.55,83.26z"/>
			</g>
		</g>
		<g class="st18">
			<g>
				<path class="st33" d="M69.88,46.36c24,3.92,23.12,26.28,14.28,26.53c-8.84,0.25-3.79-14.65-17.18-21.98L69.88,46.36z"/>
				<path class="st37" d="M66.98,50.9l1.66-2.59c3.58,1.21,6.51,3.84,8.07,7.52c2.84,6.7,5.03,17.22,12.52,12.86
					c-0.9,2.47-2.7,4.13-5.07,4.2C75.32,73.14,80.37,58.23,66.98,50.9z"/>
			</g>
			<g>
				<path class="st33" d="M92.94,79.93c-0.51-7.77-8.34-8.94-13.01-6.03c0,0-0.51-8.4-7.26-9.79c-6.76-1.39-22.04,11.05-15.73,23.94
					c0,0,15.84,10.56,25.14,8.21C93.57,93.35,92.94,79.93,92.94,79.93z"/>
				<path class="st37" d="M72.66,64.1c0.22,0.05,0.43,0.1,0.64,0.16c0.02,0.01,0.04,0.01,0.06,0.02c0.01,0,0.02,0.01,0.04,0.01
					c0.18,0.05,0.35,0.11,0.52,0.17c0.02,0.01,0.03,0.01,0.05,0.02c0.18,0.07,0.36,0.14,0.53,0.22c0,0,0,0,0,0
					c0.18,0.09,0.36,0.18,0.53,0.28c2.87,8.92-1.6,22.57-10.81,27.18c-4.22-2.09-7.28-4.13-7.28-4.13
					C50.62,75.16,65.91,62.71,72.66,64.1z"/>
				
					<ellipse transform="matrix(0.5 -0.866 0.866 0.5 -32.2948 115.0308)" class="st38" cx="83.47" cy="85.48" rx="11.17" ry="8.59"/>
				<path class="st32" d="M79.45,83.26c-1.99,3.44-1.46,7.47,1.19,9c2.65,1.53,6.4-0.03,8.39-3.47c1.99-3.44,1.46-7.47-1.19-9
					C85.2,78.26,81.44,79.81,79.45,83.26z"/>
			</g>
		</g>
		<path class="st39" d="M75.27,68.83c0,16.13-11.36,19.97-25.38,19.97s-25.38-3.84-25.38-19.97c0-16.13,11.36-29.21,25.38-29.21
			S75.27,52.7,75.27,68.83z"/>
		<path class="st40" d="M49.89,39.62c-9.06,0-17.01,5.47-21.5,13.69c10.13-1.02,30.63,20.43,42.58-0.73
			C66.42,44.76,58.68,39.62,49.89,39.62z"/>
		<path class="st41" d="M65.58,68.33c0,9.97-7.02,12.34-15.69,12.34S34.2,78.3,34.2,68.33s7.02-18.06,15.69-18.06
			S65.58,58.36,65.58,68.33z"/>
		<path class="st42" d="M63.89,60.19c-2.59-5.88-7.88-9.92-14-9.92c-4.55,0-8.65,2.23-11.51,5.79
			C46.32,59.58,55.9,64.66,63.89,60.19z"/>
		<g class="st18">
			<path class="st19" d="M70.13,46.34c-1.13-1.89-3.57-2.5-5.46-1.38c-15.29,9.13-28.86,0.48-29.45,0.1
				c-1.83-1.21-4.29-0.71-5.51,1.11c-1.22,1.83-0.73,4.3,1.1,5.52c0.49,0.32,8.31,5.42,19.26,5.42c5.6,0,12.01-1.33,18.67-5.31
				C70.64,50.67,71.25,48.22,70.13,46.34z"/>
			<path class="st20" d="M69.42,47.55c-6.9,4.63-13.54,6.18-19.34,6.18c-11.34,0-19.44-5.93-19.94-6.3
				c-0.28-0.21-0.52-0.45-0.73-0.71c-0.8,1.75-0.24,3.86,1.41,4.96c0.49,0.32,8.31,5.42,19.26,5.42c5.6,0,12.01-1.33,18.67-5.31
				c1.76-1.05,2.41-3.25,1.58-5.07C70.07,47.04,69.76,47.32,69.42,47.55z"/>
			<path class="st19" d="M59.26,49.93c8.84,0.88,1.89,19.45,1.89,19.45s9.6,3.03,13.01-5.31c0,0,1.22-12.17-8.46-16.72L59.26,49.93z
				"/>
		</g>
		<g class="st18">
			<g>
				<path class="st33" d="M73.81,31.53c0,13.21-10.71,20.21-23.92,20.21s-23.92-7-23.92-20.21c0-13.21,10.71-23.92,23.92-23.92
					S73.81,18.32,73.81,31.53z"/>
				<path class="st37" d="M73.69,33.83C57.82,46.9,37.96,26.9,25.98,31.06c0,0.16-0.01,0.32-0.01,0.48
					c0,13.21,10.71,20.21,23.92,20.21C62.31,51.75,72.52,45.55,73.69,33.83z"/>
				<g>
					<g>
						<path class="st35" d="M42.44,26.4c0,1.74-1.41,3.16-3.16,3.16s-3.16-1.41-3.16-3.16s1.41-3.16,3.16-3.16
							S42.44,24.65,42.44,26.4z"/>
						<path class="st34" d="M41.28,25.94c-0.3,0.34-0.96,0.24-1.48-0.22c-0.51-0.46-0.69-1.11-0.38-1.45
							c0.3-0.34,0.96-0.24,1.48,0.22C41.41,24.95,41.59,25.6,41.28,25.94z"/>
					</g>
					<g>
						<path class="st35" d="M63.66,26.4c0,1.74-1.41,3.16-3.16,3.16c-1.74,0-3.16-1.41-3.16-3.16s1.41-3.16,3.16-3.16
							C62.24,23.24,63.66,24.65,63.66,26.4z"/>
						<path class="st34" d="M62.51,25.94c-0.3,0.34-0.96,0.24-1.48-0.22c-0.51-0.46-0.69-1.11-0.38-1.45
							c0.3-0.34,0.96-0.24,1.48,0.22C62.64,24.95,62.81,25.6,62.51,25.94z"/>
					</g>
				</g>
				<g>
					<g>
						<path class="st33" d="M34.54,5.41c3.66,3.66,3.66,9.58,0,13.24s-9.58,3.66-13.24,0c-3.66-3.66-1.86-7.78,1.8-11.44
							C26.75,3.55,30.88,1.75,34.54,5.41z"/>
						<path class="st32" d="M32.42,8.19c2.3,2.3,2.3,6.04,0,8.34c-2.3,2.3-6.04,2.3-8.34,0c-2.3-2.3-1.17-4.9,1.13-7.2
							C27.52,7.02,30.12,5.89,32.42,8.19z"/>
					</g>
					<g>
						<path class="st33" d="M65.24,5.41c-3.66,3.66-3.66,9.58,0,13.24c3.66,3.66,9.58,3.66,13.24,0c3.66-3.66,1.86-7.78-1.8-11.44
							S68.9,1.75,65.24,5.41z"/>
						<path class="st32" d="M67.36,8.19c-2.3,2.3-2.3,6.04,0,8.34s6.04,2.3,8.34,0c2.3-2.3,1.17-4.9-1.13-7.2
							C72.26,7.02,69.66,5.89,67.36,8.19z"/>
					</g>
				</g>
			</g>
			<g>
				<path class="st32" d="M61.17,36.37c0,5.09-5.05,7.79-11.28,7.79s-11.28-2.7-11.28-7.79s5.05-9.22,11.28-9.22
					S61.17,31.28,61.17,36.37z"/>
				<g>
					<path class="st34" d="M54.67,31.62c0,1.37-2.14,2.1-4.78,2.1c-2.64,0-4.78-0.73-4.78-2.1c0-1.37,2.14-2.49,4.78-2.49
						C52.53,29.13,54.67,30.25,54.67,31.62z"/>
					<path class="st35" d="M54.67,31.62c0,1.37-2.14,2.1-4.78,2.1c-2.64,0-4.78-0.73-4.78-2.1c0-1.37,2.14-2.49,4.78-2.49
						C52.53,29.13,54.67,30.25,54.67,31.62z"/>
					<path class="st34" d="M53.49,30.71c0,1.03-1.61,1.58-3.6,1.58s-3.6-0.55-3.6-1.58s1.61-1.87,3.6-1.87S53.49,29.68,53.49,30.71z
						"/>
					<line class="st43" x1="49.89" y1="32.84" x2="49.89" y2="37.13"/>
					<path class="st43" d="M44.64,36.94c1.83,3.38,5.12,1.6,5.24,0.02"/>
					<path class="st43" d="M55.15,36.94c-1.83,3.38-5.12,1.6-5.24,0.02"/>
				</g>
			</g>
		</g>
	</g>
</g>
</svg>
